<svg width="1280" height="720" viewBox="0 0 1280 720" fill="none" xmlns="http://www.w3.org/2000/svg">
<path d="M1280 720H0V6.10352e-05H1280V720Z" fill="#DDB870"/>
<path d="M0 602.377C108.408 602.377 224.311 677.448 236.089 720C142.403 720 0 720 0 720V602.377Z" fill="#F7C667"/>
<path d="M623.644 720C612.978 424.8 930.133 450 864.686 266.011C808.754 108.77 502.4 182.16 454.044 6.10352e-05C715.022 6.10352e-05 1280 6.10352e-05 1280 6.10352e-05V720H623.644Z" fill="#F7C667"/>
<path d="M1280 7.62939e-05H1105.26C1093.21 19.2025 1086.22 41.9833 1086.22 66.4201C1086.22 134.914 1141.06 190.44 1208.71 190.44C1235.31 190.44 1259.92 181.854 1280 167.278V7.62939e-05Z" fill="#8EC63F"/>
</svg>
