<svg width="718" height="483" viewBox="0 0 718 483" fill="none" xmlns="http://www.w3.org/2000/svg">
<path d="M364.578 3.86801C363.945 2.11481 363.808 1.47761 362.987 0.664009C362.274 -0.0451913 360.773 0.404837 360.672 1.44884C360.557 2.66564 360.809 3.1192 361.475 4.9588C361.778 5.794 362.728 6.262 363.574 5.9668C364.409 5.6716 364.881 4.70681 364.578 3.86801Z" fill="#F36523"/>
<path d="M662.979 445.692C662.979 466.018 514.63 482.495 331.631 482.495C148.636 482.495 0.287109 466.018 0.287109 445.692C0.287109 425.367 148.636 408.89 331.631 408.89C514.63 408.89 662.979 425.367 662.979 445.692Z" fill="#17D3B7"/>
<path d="M129.408 311.52H98.6607C96.1191 311.52 94.0635 313.576 94.0635 316.118V333.376H99.2043V317.014H129.408V311.52Z" fill="#3D3D3E"/>
<path d="M135.284 299.864L125.755 289.809C125.755 289.809 115.552 295.418 103.661 300.782C100.389 295.09 95.0537 276.37 94.7693 275.481C94.4813 274.584 101.019 263.338 99.5537 263.057C98.0921 262.776 96.195 269.062 94.647 268.425C93.1026 267.788 89.1281 253.204 88.1993 254C86.4569 255.49 90.2873 263.072 89.3693 263.622C88.4549 264.177 86.1257 255.22 84.3545 255.602C82.5833 255.983 87.3461 263.756 86.8241 264.501C86.3021 265.25 81.3197 257.956 80.2937 259.644C79.7321 260.562 84.8873 265.995 83.8253 266.603C82.7669 267.212 78.1229 263.788 77.5685 264.897C77.0141 266.006 81.8993 267.161 83.2565 269.966C84.6137 272.77 87.0797 273.861 87.9005 279.164C88.7177 284.463 90.957 312.809 96.735 315.088C101.779 317.075 135.284 299.864 135.284 299.864Z" fill="#FFBFB2"/>
<path d="M223.195 430.547C223.948 425.201 223.89 415.33 223.509 404.915C228.171 404.678 232.12 404.382 236.778 404.076C234.838 417.375 233.531 431.073 233.531 431.073L233.851 433.701L234.024 441.491L207.629 441.689C207.629 441.689 213.191 439.223 220.971 434.349C221.547 433.989 222.875 432.84 223.195 430.547Z" fill="#FFBFB2"/>
<path d="M234.734 443.165L206.902 443.496C205.894 443.406 205.649 442.589 205.999 442.089C206.719 441.052 209.897 440.296 213.469 438.647C219.736 439.299 232.847 435.018 233.837 433.578C234.406 436.462 235.295 443.043 234.734 443.165Z" fill="#8EC63F"/>
<path d="M270.489 425.039C268.311 420.1 263.055 411.741 257.241 403.094C261.082 400.433 264.887 397.726 268.685 395.008C274.045 407.334 279.55 420.039 279.55 420.039L281.206 422.105L285.457 428.636L263.13 442.715C263.13 442.715 266.558 437.686 270.6 429.442C270.899 428.834 271.421 427.156 270.489 425.039Z" fill="#FFBFB2"/>
<path d="M286.621 430.27L263.465 444.63C262.562 445.088 261.921 444.522 261.953 443.91C262.022 442.654 264.322 440.332 266.489 437.049C272.159 434.302 280.994 423.686 281.073 421.94C283.078 424.089 287.031 429.87 286.621 430.27Z" fill="#8EC63F"/>
<path d="M259.631 207.639C261.698 197.573 255.221 187.598 246.146 183.85C246.203 178.122 244.349 170.868 240.44 166.948C232.725 159.212 218.001 156.501 212.331 166.361C204.836 170.602 198.942 179.782 201.174 188.145C193.913 195.669 196.671 209.277 207.262 215.703C207.093 224.141 211.553 232.529 218.933 236.136C220.704 237.004 223.476 238.21 223.829 238.584C223.365 238.145 229.294 254.655 247.708 247.098C266.5 239.391 271.878 217.69 259.631 207.639Z" fill="#505052"/>
<path d="M222.71 422.998C224.999 410.319 217.054 378.884 212.212 365.063C207.176 350.685 203.972 289.852 203.972 289.852L209.685 283.174L232.991 281.777C232.991 281.777 223.073 312.248 223.073 322.716C223.073 333.185 227.897 360.21 233.564 374.272C238.791 387.246 236.62 414.448 235.04 423.39C230.824 424.074 226.828 423.826 222.71 422.998Z" fill="#505052"/>
<path d="M238.881 284.607C239.95 285.672 246.211 293.092 246.211 298.276C246.211 303.464 234.406 350.127 237.239 352.956C240.072 355.786 250.556 362.867 257.241 372.731C262.879 381.044 275.799 405.077 278.265 410.794C273.398 414.178 269.168 415.722 264.29 417.357C263.508 413.102 225.338 371.025 220.978 362.226C216.618 353.428 214.26 313.205 212.054 307.863C209.85 302.52 203.972 288.948 203.972 288.948L238.881 284.607Z" fill="#666668"/>
<path d="M204.879 250.216C204.879 250.216 190.489 266.636 174.567 272.817C172.075 273.782 169.937 275.672 169.937 275.672C169.937 277.346 173.292 275.355 173.292 275.355C173.292 275.355 171.924 277.763 172.446 279.754C172.972 281.745 176.446 280.424 178.332 280.424C179.2 280.424 183.639 275.452 189.633 272.532C196.728 269.076 205.098 265.696 206.124 264.674C208.011 262.787 205.437 249.615 204.879 250.216Z" fill="#FFBFB2"/>
<path d="M143.016 270.66C143.016 270.66 137.541 265.181 125.65 269.624C113.759 274.066 103.661 300.782 103.661 300.782L106.404 313.004L128.566 305.397L143.016 270.66Z" fill="#7EAA37"/>
<path d="M234.143 204.003C234.143 204.003 219.664 202.534 212.108 207.354C204.551 212.171 199.724 229.35 199.724 236.684C199.724 244.017 205.174 282.566 203.079 289.899C203.079 289.899 227.008 288.848 235.194 288.848C243.377 288.848 245.058 285.708 245.058 285.708C245.058 285.708 228.059 268.947 228.059 261.614C228.059 254.28 234.143 204.003 234.143 204.003Z" fill="#F36523"/>
<path d="M57.1276 400.818H39.1456C39.4732 395.771 43.3252 391.775 48.0124 391.775H57.1276V400.818ZM36.406 401.513V426.627H39.124V403.792H57.1276V411.633C50.1652 412.378 44.7292 418.808 44.7292 426.627C44.7292 434.95 50.8888 441.696 58.4848 441.696C66.0844 441.696 72.2404 434.95 72.2404 426.627C72.2404 418.808 66.8044 412.378 59.842 411.633V403.792H63.5788V400.818H59.842V391.775H63.5788V388.798H59.842V378.74H109.097V374.272H81.8848V348.701C81.8848 341.868 88.1632 334.229 96.5656 334.229H119.966V329.765H96.5656C86.572 329.765 77.806 338.614 77.806 348.701V374.272H59.842V359.93H57.1276V388.798H48.0124C41.6116 388.798 36.406 394.5 36.406 401.513Z" fill="#666668"/>
<path d="M47.0728 405.455C47.0728 405.455 47.62 415.139 47.6236 415.161C47.8252 416.388 48.6172 419.427 48.6172 420.546C48.6172 424.744 29.9368 416.982 34.1236 415.121C34.5016 414.952 36.658 412.626 37.2016 411.298C38.1664 408.933 38.5876 404.296 38.5876 404.296L47.0728 405.455Z" fill="#FE8D71"/>
<path d="M34.1704 415.082C34.1704 415.082 38.5552 416.363 40.8016 416.687C43.048 417.008 46.0108 414.304 47.5984 415.035C49.348 415.838 49.4488 423.221 49.4488 423.221C49.4488 423.221 25.966 424.002 19.144 423.002C16.4188 422.602 25.2028 418.073 34.1704 415.082Z" fill="#7EAA37"/>
<path d="M140.604 384.77H145.767V286.439C145.767 283.12 149.014 280.424 153.006 280.424H199.436C200.674 280.424 201.678 279.462 201.678 278.278C201.678 277.094 200.674 276.132 199.436 276.132H153.006C146.17 276.132 140.604 280.758 140.604 286.439V384.77Z" fill="#666668"/>
<path d="M116.409 364.142C133.61 364.142 147.553 378.21 147.553 395.566C147.553 412.922 133.61 426.99 116.409 426.99C99.2082 426.99 85.2617 412.922 85.2617 395.566C85.2617 378.21 99.2082 364.142 116.409 364.142Z" fill="#666668"/>
<path d="M82.0757 395.566C82.0757 376.436 97.4477 360.927 116.409 360.927C135.37 360.927 150.738 376.436 150.738 395.566C150.738 414.696 135.37 430.205 116.409 430.205C97.4477 430.205 82.0757 414.696 82.0757 395.566ZM78.4829 395.566C78.4829 416.698 95.4605 433.83 116.409 433.83C137.354 433.83 154.335 416.698 154.335 395.566C154.335 374.434 137.354 357.302 116.409 357.302C95.4605 357.302 78.4829 374.434 78.4829 395.566Z" fill="#666668"/>
<path d="M141.306 351.966H156.545V292.93H141.306V351.966Z" fill="#666668"/>
<path d="M65.8291 426.627H68.7811V401.513C68.7811 396.142 73.1083 391.775 78.4291 391.775H95.3311V388.798H78.4291C71.4811 388.798 65.8291 394.5 65.8291 401.513V426.627Z" fill="#E1DDE7"/>
<path d="M85.9889 355.764H45.9172V362.64H85.9889V355.764Z" fill="#666668"/>
<path d="M67.3047 403.792H95.3307V400.818H67.3047V403.792Z" fill="#E1DDE7"/>
<path d="M89.7974 378.74H144.744V374.272H89.7974V378.74Z" fill="#E1DDE7"/>
<path d="M156.545 355.66H85.0059V362.64H156.545V355.66Z" fill="#666668"/>
<path d="M154.335 390.029H158.759V291.699C158.759 288.383 161.542 285.683 164.966 285.683H206.697V281.396H164.966C159.105 281.396 154.335 286.018 154.335 291.699V390.029Z" fill="#E1DDE7"/>
<path d="M73.1943 426.627C73.1943 434.95 80.6283 441.696 89.7975 441.696C98.9703 441.696 106.404 434.95 106.404 426.627C106.404 418.304 98.9703 411.557 89.7975 411.557C80.6283 411.557 73.1943 418.304 73.1943 426.627Z" fill="#666668"/>
<path d="M79.689 426.627C79.689 431.696 84.2141 435.803 89.7977 435.803C95.3849 435.803 99.9101 431.696 99.9101 426.627C99.9101 421.558 95.3849 417.45 89.7977 417.45C84.2141 417.45 79.689 421.558 79.689 426.627Z" fill="#E1DDE7"/>
<path d="M89.8912 434.504C92.0296 434.504 93.7648 432.768 93.7648 430.63V420.179H86.0176V430.63C86.0176 432.768 87.7528 434.504 89.8912 434.504Z" fill="#666668"/>
<path d="M49.3012 329.765C54.1036 324.963 121.028 327.278 121.028 327.278C121.028 327.278 64.3312 341.112 61.0228 342.92C57.7108 344.723 45.3916 405.614 45.3772 406.409C41.9572 405.596 39.8872 406.211 36.406 405.498C36.9604 394.918 41.5648 337.502 49.3012 329.765Z" fill="#505052"/>
<path d="M55.8244 405.75C55.8244 405.75 56.3752 415.434 56.3752 415.456C56.5768 416.684 57.3724 419.722 57.3724 420.842C57.3724 425.039 38.6884 417.278 42.8752 415.416C43.2532 415.247 45.8272 413.022 45.9532 411.593C46.144 409.39 46.0432 405.887 46.0432 405.887L55.8244 405.75Z" fill="#FFBFB2"/>
<path d="M42.9219 415.377C42.9219 415.377 47.3067 416.658 49.5531 416.982C51.8031 417.303 54.7623 414.599 56.3535 415.33C58.1031 416.133 58.2003 423.516 58.2003 423.516C58.2003 423.516 34.7175 424.298 27.8955 423.297C25.1703 422.897 33.9543 418.368 42.9219 415.377Z" fill="#8EC63F"/>
<path d="M131.464 341.019C131.464 341.019 130.884 356.214 125.83 356.394C120.772 356.574 88.3252 357.302 70.048 355.66L57.7504 410.009L43.3108 408.616C43.3108 408.616 47.6596 372.321 49.2076 358.515C50.7268 344.932 55.1152 333.534 62.794 333.261C70.4728 332.984 120.952 325.172 120.952 325.172L131.464 341.019Z" fill="#505052"/>
<path d="M145.075 270.099C145.075 270.099 153.265 272.176 152.157 288.178C151.044 304.18 142.195 352.593 125.83 356.394C109.464 360.196 98.8047 325.733 98.8047 325.733C98.8047 325.733 109.129 322.338 113.428 306.322C116.409 295.223 124.393 270.182 126.391 268.976C131.356 265.984 145.075 270.099 145.075 270.099Z" fill="#8EC63F"/>
<path d="M110.775 377.71H115.203V348.701C115.203 341.868 122.018 334.229 131.14 334.229H156.545V329.765H131.14C120.293 329.765 110.775 338.614 110.775 348.701V377.71Z" fill="#E1DDE7"/>
<path d="M120.775 399.713C120.775 419.643 136.792 435.803 156.545 435.803C176.302 435.803 192.315 419.643 192.315 399.713C192.315 379.78 176.302 363.62 156.545 363.62C136.792 363.62 120.775 379.78 120.775 399.713Z" fill="#E1DDE7"/>
<path d="M117.118 399.713C117.118 377.739 134.769 359.93 156.545 359.93C178.322 359.93 195.976 377.739 195.976 399.713C195.976 421.684 178.322 439.493 156.545 439.493C134.769 439.493 117.118 421.684 117.118 399.713ZM112.989 399.713C112.989 423.984 132.49 443.658 156.545 443.658C180.6 443.658 200.102 423.984 200.102 399.713C200.102 375.442 180.6 355.764 156.545 355.764C132.49 355.764 112.989 375.442 112.989 399.713Z" fill="#E1DDE7"/>
<path d="M127.043 399.713C127.043 416.151 140.251 429.478 156.545 429.478C172.839 429.478 186.047 416.151 186.047 399.713C186.047 383.272 172.839 369.945 156.545 369.945C140.251 369.945 127.043 383.272 127.043 399.713Z" fill="#666668"/>
<path d="M149.907 399.713C149.907 403.41 152.88 406.409 156.545 406.409C160.21 406.409 163.183 403.41 163.183 399.713C163.183 396.012 160.21 393.014 156.545 393.014C152.88 393.014 149.907 396.012 149.907 399.713Z" fill="#666668"/>
<path d="M24.9688 431.202H70.0084V423.401H24.9688V431.202Z" fill="#666668"/>
<path d="M44.4412 431.202H70.0084V423.401H44.4412V431.202Z" fill="#E1DDE7"/>
<path d="M88.3252 431.202H91.2736V362.558H88.3252V431.202Z" fill="#E1DDE7"/>
<path d="M88.0479 427.502C88.0479 428.517 88.8614 429.341 89.8694 429.341C90.8738 429.341 91.6874 428.517 91.6874 427.502C91.6874 426.49 90.8738 425.666 89.8694 425.666C88.8614 425.666 88.0479 426.49 88.0479 427.502Z" fill="#666668"/>
<path d="M140.129 227.259C140.129 227.259 145.868 223.382 148.294 230.175C148.276 230.121 150.321 230.142 150.595 230.236C151.775 230.636 152.917 231.863 153.968 232.536C157.719 234.938 159.443 239.6 159.649 243.88C159.897 249.075 157.751 252.873 154.335 256.624C153.327 257.729 152.251 258.809 150.933 259.515C149.342 260.368 148.085 259.691 146.591 260.055C145.331 260.357 144.889 261.689 143.405 261.207C141.325 260.537 139.139 257.931 136.562 258.316C133.984 258.701 128.033 256.383 128.019 256.376C120.376 253.395 125.535 238.602 127 233.354C128.379 228.418 135.399 225.473 140.129 227.259Z" fill="#F36523"/>
<path d="M133.224 260.872L131.237 266.29L130.168 269.318C130.168 269.318 130.092 274.736 131.356 276.14C133.53 278.559 142.476 269.602 142.476 269.602L145.309 252.563L133.224 260.872Z" fill="#FFBFB2"/>
<path d="M144.388 258.082C140.986 263.356 135.129 265.768 131.219 266.34L133.224 260.872L145.31 252.563L144.388 258.082Z" fill="#FE8D71"/>
<path d="M142.984 235.056C138.43 232.274 132.454 234.387 130.578 239.301C129.765 241.439 128.854 244.15 128.13 247.174C126.384 254.446 128.595 262.391 131.91 263.122C135.226 263.853 145.436 261.149 148.056 250.857C149.676 244.499 147.765 237.98 142.984 235.056Z" fill="#FFBFB2"/>
<path d="M145.432 251.138C145.079 252.747 145.857 254.291 147.175 254.579C148.492 254.871 149.849 253.802 150.206 252.189C150.562 250.58 149.781 249.039 148.463 248.747C147.146 248.456 145.789 249.525 145.432 251.138Z" fill="#FFBFB2"/>
<path d="M135.19 254.154C135.19 254.154 139.564 255.58 139.92 257.186C140.277 258.791 139.74 261.113 137.598 262.895C135.46 264.681 130.881 263.579 129.632 262.596C128.382 261.617 127.432 257.456 128.681 255.137C129.93 252.815 135.19 254.154 135.19 254.154Z" fill="#F36523"/>
<path d="M136.619 257.513C136.619 257.513 136.594 259.302 135.993 259.626C135.413 259.936 134.682 260.199 134.002 260.264C132.904 260.368 131.91 259.9 131.331 259.05C131.273 258.968 131.223 258.881 131.179 258.791C130.733 257.902 130.643 256.325 130.643 256.325C130.643 256.325 132.486 255.879 133.555 256.059C134.628 256.235 136.619 257.513 136.619 257.513Z" fill="#FFBFB2"/>
<path d="M183.88 278.375C185.611 276.647 193.639 273.976 199.723 269.577C202.416 267.629 207.589 265.07 212.626 262.283C216.305 264.321 219.631 266.88 222.115 269.94C213.004 274.131 203.115 278.339 201.613 279.84C198.78 282.67 193.848 289.06 192.693 289.06C191.541 289.06 182.778 286.493 181.464 285.183C180.154 283.872 182.148 280.103 183.88 278.375Z" fill="#FFBFB2"/>
<path d="M212.626 262.283C218.976 258.77 225.107 254.9 225.748 251.454C226.904 245.273 221.658 218.561 224.596 213.428C227.534 208.298 234.143 204.003 234.143 204.003C235.194 204.003 238.971 206.307 240.022 210.915C241.07 215.523 239.183 257.006 238.132 260.775C237.639 262.546 230.457 269.595 222.393 273.303C219.909 270.243 216.305 264.321 212.626 262.283Z" fill="#D35422"/>
<path d="M147.207 318.227L121.884 324.862C121.884 324.862 114.439 330.23 111.091 331.295C107.743 332.361 103.654 336.051 104.453 337.181C105.256 338.315 109.464 334.47 110.145 334.586C110.829 334.704 107.675 339.255 107.16 342.239C106.649 345.224 105.627 348.118 107.337 347.884C109.047 347.65 110.289 340.929 110.289 340.929C110.289 340.929 112.916 335.849 113.341 336.45C113.766 337.048 111.585 340.536 111.585 340.536C111.585 340.536 111.07 344.309 110.839 345.634C110.67 346.624 111.581 349.594 112.359 348.503C112.816 347.862 112.6 345.411 113.129 344.01C114.216 341.141 115.995 338.866 115.995 338.866C115.995 338.866 114.09 347.459 115.285 347.664C116.48 347.87 117.719 340.749 117.719 340.749C117.719 340.749 120.642 334.82 121.917 334.29C123.191 333.761 126.697 331.504 129.408 330.561C132.119 329.621 143.326 332.721 148.326 332.786C153.327 332.854 161.441 329.758 162.114 325.834C162.319 324.639 161.574 323.314 160.433 322.05C157.128 318.386 151.984 316.974 147.207 318.227Z" fill="#FFBFB2"/>
<path d="M145.076 270.099C145.076 270.099 152.736 268.734 159.67 281.212C166.604 293.686 162.115 325.834 162.115 325.834L147.207 318.227L145.076 270.099Z" fill="#7EAA37"/>
<path d="M183.106 276.572C183.106 276.572 180.089 280.866 179.189 280.866C178.289 280.866 173.573 281.162 172.832 280.424C172.094 279.682 175.499 274.106 176.716 274.106C177.936 274.106 175.272 277.788 175.593 278.109C175.913 278.429 178.548 272.277 179.895 272.853C181.245 273.432 177.263 277.727 177.713 278.174C178.163 278.624 180.989 273.303 182.08 273.303C183.171 273.303 179.513 278.112 179.895 278.494C180.28 278.879 182.591 276.06 183.106 276.572Z" fill="#FFBFB2"/>
<path d="M226.626 191.075C226.626 191.075 225.013 199.938 225.334 203.438C225.658 206.933 224.106 218.205 217.14 218.241C210.174 218.277 214.908 206.541 215.563 203.114C216.222 199.686 217.284 186.449 217.284 186.449L226.626 191.075Z" fill="#FFBFB2"/>
<path d="M216.856 191.468C216.964 188.57 217.49 186.262 217.49 186.262L226.626 191.075C226.626 191.075 226.295 192.886 225.964 195.197C221.874 196.068 218.627 194.157 216.856 191.468Z" fill="#FE8D71"/>
<path d="M226.824 165.321C226.824 165.321 230.748 166.718 232.883 170.987C235.018 175.253 235.724 187.194 227.116 191.784C218.508 196.371 212.828 187.911 213.364 180.326C213.897 172.744 216.284 162.812 226.824 165.321Z" fill="#FFBFB2"/>
<path d="M210.805 178.216C210.578 180.182 211.273 181.856 212.356 181.96C213.443 182.064 214.505 180.552 214.732 178.587C214.959 176.621 214.264 174.944 213.181 174.843C212.093 174.738 211.031 176.25 210.805 178.216Z" fill="#FFBFB2"/>
<path d="M232.123 181.524C231.367 183.425 231.745 185.423 232.966 185.985C234.186 186.546 235.792 185.459 236.548 183.555C237.304 181.654 236.926 179.656 235.705 179.094C234.485 178.533 232.879 179.62 232.123 181.524Z" fill="#FFBFB2"/>
<path d="M155.245 70.396L152.808 66.49L148.153 67.0732L145.734 62.4976L140.964 64.6504L137.998 59.5996L133.365 61.0396L129.718 56.6512L131.377 55.2652L134.103 58.5484L138.995 57.0256L141.846 61.882L146.692 59.6932L149.367 64.7404L153.91 64.1716L156.167 67.7896L159.076 66.7924L159.771 68.8372L155.245 70.396Z" fill="#F2F2F2"/>
<path d="M603.982 124.396L598.74 123.183L597.351 126.92L592.134 125.904L590.244 129.31L586.23 129.051L586.212 130.664L591.58 131.009L593.373 127.78L598.798 128.838L600.162 125.163L604.914 126.261L603.982 124.396Z" fill="#8EC63F"/>
<path d="M294.119 427.275C294.119 427.275 290.354 431.048 290.267 432.43C290.185 433.816 289.936 448.648 291.473 450.034C293.011 451.416 297.529 452.399 296.074 453.958C294.976 455.135 286.534 454.883 280.936 454.566C279.305 454.473 277.257 441.095 276.609 439.13C275.669 436.275 272.282 430.058 273.139 428.067C273.553 427.098 276.645 424.888 279.453 423.027C282.401 421.072 285.227 416.716 285.227 416.716L294.119 427.275Z" fill="#FE8D71"/>
<path d="M344.512 436.541C344.512 436.541 341.142 446.315 341.139 446.34C340.887 447.888 339.9 451.715 339.9 453.123C339.9 458.411 363.138 448.634 357.929 446.29C357.458 446.078 355.978 444.382 355.823 442.582C355.586 439.81 357.782 436.332 357.782 436.332L344.512 436.541Z" fill="#FFBFB2"/>
<path d="M383.309 251.724C383.309 251.724 385.059 267.896 385.059 268.158C385.059 296.501 388.327 351.869 387.287 357.197C384.745 370.197 357.011 440.94 357.011 440.94L342.636 438.863L361.889 355.304L354.804 323.35L344.778 260.184L383.309 251.724Z" fill="#505052"/>
<path d="M329.14 265.872L326.339 282.479L318.754 350.829L281.631 420.19C281.631 420.19 287.211 428.87 293.205 430.234L345.898 360.131L374.453 272.37L373.452 252.873L329.14 265.872Z" fill="#666668"/>
<path d="M384.616 208.654L364.129 210.8C364.129 210.8 363.189 193.563 363.189 185.34C363.189 175.365 364.291 162.664 365.464 162.938C368.758 163.715 372.923 165.432 375.566 169.158C384.703 182.05 384.616 208.654 384.616 208.654Z" fill="black"/>
<path d="M308.858 291.45C305.733 286.259 305.031 286.997 304.646 286.32C304.192 285.521 304.696 273.17 304.696 273.17C304.696 273.17 305.949 236.756 306.082 234.794L322.088 201.177L308.253 187.979C308.253 187.979 291.783 225.045 291.246 227.144C290.71 229.242 294.522 278.732 294.72 283.098C294.72 283.098 293.119 288.376 292.215 291.728C291.315 295.079 291.894 298.694 291.779 299.676C291.761 299.824 291.563 303.132 292.362 307.283C293.05 310.862 293.968 307.157 293.968 307.157C293.968 307.157 293.831 300.303 294.353 300.389C294.753 300.458 294.616 304.202 295.336 308.169C295.523 309.188 295.711 310.196 295.887 311.117C296.359 313.54 297.914 313.947 297.809 311.337C297.773 310.412 297.676 308.882 297.46 307.798C297.226 306.628 297.37 305.48 297.316 304.468C297.212 302.456 297.111 300.99 297.194 301.03C297.298 301.088 297.547 300.674 297.777 301.75C298.054 303.046 298.058 305.922 298.601 307.794C298.914 308.856 299.429 311.117 299.429 311.117C299.429 311.117 300.826 314.382 301.035 314.364C302.173 314.264 301.82 311.758 301.218 310.372C301.269 309.288 300.66 306.927 300.66 306.927C300.66 306.927 300.452 301.88 301.136 301.844C301.427 301.829 301.91 304.914 302.838 307.866C303.702 310.61 305.002 313.234 305.546 313.148C306.471 312.993 305.823 309.846 305.823 309.846C305.823 309.846 305.254 307.665 305.121 306.927C304.963 306.063 304.678 303.435 304.678 303.435C304.678 303.435 304.095 294.24 304.746 294.269C305.398 294.294 307.054 295.054 307.277 295.612C307.504 296.17 307.403 297.416 307.63 297.974C307.853 298.532 308.606 299.064 309.282 298.838C309.959 298.607 309.858 295.486 309.858 295.486C309.858 295.486 309.761 292.948 308.858 291.45Z" fill="#FFBFB2"/>
<path d="M374.55 183.58C374.982 186.622 385.08 268.169 385.08 268.169C347.781 286.659 323.456 281.111 323.456 281.111C323.456 281.111 326.192 214.54 324.73 206.634C323.762 201.407 322.556 166.66 325.857 165.688C330.094 164.439 334.95 163.114 340.246 162.549C344.764 162.066 362.321 161.789 365.464 162.873C365.464 162.873 372.747 170.789 374.55 183.58Z" fill="#F2F2F2"/>
<path d="M299.231 200.77L316.976 212.999C316.976 212.999 326.98 197.721 332.348 192.285C339.076 185.47 329.9 164.597 325.565 165.782C315.871 168.42 299.231 200.77 299.231 200.77Z" fill="#E1DDE7"/>
<path d="M279.633 422.933C279.633 422.933 288.316 448.025 291.714 449.235C292.618 449.555 296.945 450.372 297.762 452.338C298.011 452.928 297.762 454.908 297.762 454.908H279.669C279.669 454.908 277.379 443.853 276.475 438.996C276.475 438.996 271.684 427.127 272.217 426.051C272.749 424.971 279.633 422.933 279.633 422.933Z" fill="#505052"/>
<path d="M338.579 454.869L341.24 446.24C341.24 446.24 346.827 448.666 349.624 448.263C352.418 447.856 357.872 446.24 357.872 446.24C369.024 450.009 378.161 451.838 376.502 454.869H338.579Z" fill="#666668"/>
<path d="M411.173 277.032C413.074 278.703 415.169 279.39 417.603 278.879C415.324 280.611 412.148 279.286 411.173 277.032Z" fill="#FF8EBE"/>
<path d="M345.203 145.571L342.46 162.794C342.46 162.794 352.504 184.703 358.509 182.86C363.545 181.312 360.446 162.491 360.446 162.491C360.446 162.491 357.702 152.386 358.523 147.328C359.348 142.27 345.203 145.571 345.203 145.571Z" fill="#FFBFB2"/>
<path d="M358.523 147.328C359.348 142.27 345.203 145.571 345.203 145.571L344.977 147.051C345.391 148.044 345.895 148.89 346.51 149.542C349.667 152.89 354.607 154.899 358.876 155.05C358.448 152.325 358.185 149.402 358.523 147.328Z" fill="#FE8D71"/>
<path d="M342.881 120.299C342.485 120.155 339.677 140.643 345.001 146.28C350.322 151.918 360.69 153.765 364.413 149.322C368.524 144.412 368.319 122.391 360.046 116.595C351.769 110.795 342.881 120.299 342.881 120.299Z" fill="#FFBFB2"/>
<path d="M344.832 112.404C341.931 112.743 337.982 114.323 333.906 120.965C328.895 129.134 332.596 138.184 338.432 142.623C344.264 147.062 344.159 152.148 344.159 152.148L345.106 149.538C345.786 147.53 346.064 145.398 345.837 143.289C345.7 142.025 345.423 140.657 344.894 139.534C343.49 136.568 347.907 134.598 349.145 132.132C350.099 130.232 350.146 125.886 351.647 122.747L353.444 120.35C353.444 120.35 357.584 117.178 361.634 118.071C365.684 118.967 360.708 99.5164 344.832 112.404Z" fill="#F36523"/>
<path d="M348.872 135.776C348.915 138.278 347.759 140.322 346.294 140.348C344.829 140.373 343.605 138.368 343.565 135.866C343.522 133.367 344.674 131.319 346.143 131.297C347.608 131.272 348.832 133.277 348.872 135.776Z" fill="#FFBFB2"/>
<path d="M627.231 299.234C627.231 299.234 626.093 297.93 625.748 297.466C625.344 296.922 624.261 295.202 624.261 295.202C624.261 295.202 620.762 289.031 621.24 288.808C621.719 288.588 622.907 289.312 623.256 289.618C623.606 289.92 624.045 290.244 624.394 290.55C624.743 290.856 625.258 290.849 625.668 290.439C626.079 290.032 624.952 288.513 624.459 288.066C622.914 286.673 618.044 283.775 617.543 283.448C616.949 283.059 612.852 271.24 611.128 267.302C611.128 267.302 611.132 267.302 611.132 267.298C608.5 260.768 606.124 253.924 605.847 253.229L603.129 223.202L591.735 219.915C591.735 219.915 594.284 253.283 594.6 254.939C594.752 255.728 602.024 270.39 602.031 270.387C606.063 277.382 609.638 283.538 610.289 284.736C610.289 284.736 611.276 288.858 611.751 291.515C612.222 294.176 613.727 296.433 613.976 297.16C614.012 297.268 614.728 299.817 616.69 302.405C618.386 304.637 617.802 301.728 617.802 301.728C617.802 301.728 615.408 297.016 615.815 296.886C616.125 296.786 617.28 299.439 619.127 301.926C619.602 302.567 620.074 303.197 620.51 303.773C621.658 305.282 622.914 304.994 621.968 303.215C621.633 302.589 621.05 301.563 620.531 300.89C619.97 300.162 619.689 299.313 619.311 298.629C618.562 297.268 618 296.289 618.072 296.289C618.166 296.285 618.209 295.907 618.735 296.573C619.365 297.369 620.33 299.367 621.352 300.468C621.928 301.091 623.058 302.466 623.058 302.466C623.058 302.466 625.132 304.497 625.28 304.407C626.061 303.917 624.992 302.034 624.095 301.293C623.768 300.522 622.54 299.108 622.54 299.108C622.54 299.108 620.697 295.677 621.179 295.4C621.575 295.173 627.569 302.517 628.322 301.973C628.934 301.527 627.231 299.234 627.231 299.234Z" fill="#FE8D71"/>
<path d="M511.955 235.528C511.829 235.409 511.415 234.743 511.001 234.261C510.432 233.588 509.842 233.076 509.842 233.076C509.842 233.076 509.857 232.619 509.677 231.914C509.597 231.618 509.353 231.244 509.266 230.916C509.183 230.578 509.223 230.204 509.137 229.887C508.906 229.07 508.517 228.465 508.049 228.54C507.664 228.602 508.348 233.634 508.348 233.634C510.865 236.756 511.934 241.299 522.503 244.665C527.655 247.311 553.802 259.23 556.279 257.88C557.668 257.121 564.508 246.443 569.555 238.156C567.114 236.928 561.938 234.315 559.101 232.803C556.358 238.552 552.466 245.867 551.527 246.198C551.282 246.285 550.738 246.314 530.891 240.024C530.391 239.862 529.88 239.704 529.358 239.542C527.961 239.096 526.467 238.62 524.89 238.116L522.151 233.937C522.151 233.937 516.758 228.184 515.915 228.569C515.534 228.746 515.786 229.383 516.203 230.078L516.218 230.096C516.279 230.196 516.34 230.297 516.405 230.402C516.409 230.405 516.412 230.412 516.412 230.412C516.88 231.147 517.445 231.863 517.525 232.083C517.615 232.331 517.78 232.846 517.823 233.372C513.168 230.837 513.961 230.679 513.014 229.35C512.78 229.016 512.413 228.753 512.197 228.436C511.822 227.889 511.793 227.234 511.495 226.82C511.052 226.215 510.4 225.963 510.206 225.948C509.965 225.923 509.972 226.334 510.152 227C511.271 230.974 513.741 233.008 514.191 233.94C514.49 234.567 513.514 233.771 512.456 232.151C512.189 231.748 511.657 231.37 511.372 230.783C511.174 230.394 511.145 229.923 510.962 229.534C510.789 229.178 510.537 228.875 510.382 228.587C510.173 228.209 510.051 227.547 509.867 227.262C509.183 226.197 508.625 225.862 508.442 225.826C508.06 225.765 509.972 231.579 509.972 231.579C509.972 231.579 512.02 234.988 512.578 235.672C512.578 235.672 512.729 236.226 511.955 235.528Z" fill="#FFBFB2"/>
<path d="M600.551 185.315C601.721 179.987 602.869 174.627 599.781 168.777C597.282 164.039 592.959 161.318 587.958 160.724C573.785 159.042 572.539 171.704 559.075 177.248C553.326 179.616 547.429 178.94 542.289 182C533.011 187.526 528.083 203.034 534.235 217.478C549.305 252.848 584.833 229.696 589.402 222.734C592.8 217.553 599.799 188.742 600.551 185.315Z" fill="#F36523"/>
<path d="M596.85 208.686C589.247 211.062 568.659 217.726 567.629 217.478L548.866 202.545L537.324 212.675C537.324 212.675 563.079 231.744 564.54 232.443C565.624 232.958 588.297 221.276 598.989 216.052C598.834 212.571 598.557 211.732 596.85 208.686Z" fill="#FFBFB2"/>
<path d="M562.524 210.908L550.767 226.128C550.767 226.128 538.375 216.603 533.807 211.48C528.263 205.263 522.201 191.914 523.093 191.428C525.606 190.056 531.021 188.958 534.757 189.794C547.689 192.684 562.524 210.908 562.524 210.908Z" fill="#8EC63F"/>
<path d="M593.574 234.722L605.469 227.936C605.469 227.936 600.069 205.166 590.435 204.438L593.574 234.722Z" fill="#E1DDE7"/>
<path d="M543.877 408.731C543.877 408.731 542.865 418.977 540.273 420.856C537.677 422.739 534.218 429.698 535.949 433.463C536.489 434.637 537.569 435.317 538.801 435.695C542.444 436.818 546.325 434.928 547.876 431.444C548.74 429.5 549.503 426.904 549.655 423.632C550.043 415.308 552.639 411.075 552.639 411.075L543.877 408.731Z" fill="#FFBFB2"/>
<path d="M583.739 412.925C583.739 412.925 584.556 423.261 583.894 426.623C583.538 428.423 581.561 432.124 582.468 433.82C583.376 435.512 584.412 435.933 584.412 435.933L607.946 436.314C609.227 436.332 608.381 435.512 607.344 434.752C605.652 433.51 604.288 432.689 598.884 430.083C598.532 429.91 597.25 429.096 596.786 428.816C595.612 428.099 594.435 426.972 593.42 425.846C591.731 423.97 591.584 414.866 591.584 414.866L583.739 412.925Z" fill="#FFBFB2"/>
<path d="M602.131 275.499C602.131 275.499 605.094 292.282 603.15 303.287C601.203 314.292 591.864 416.298 591.864 416.298L581.489 416.885C581.489 416.885 579.311 374.272 579.7 368.346C580.089 362.421 583.17 352.506 583.17 352.506L582.137 318.101L595.234 272.907L602.131 275.499Z" fill="#7EAA37"/>
<path d="M571.633 271.967C571.633 271.967 563.461 284.24 561.517 294.399C559.569 304.558 562.942 335.777 559.202 349.09C557.175 356.294 549.496 367.425 548.326 376.734C547.16 386.048 542.581 410.438 542.581 410.438L552.956 412.49L577.061 351.574L595.972 296.516L600.814 268.158L571.633 271.967Z" fill="#8EC63F"/>
<path d="M578.246 202.127C578.246 202.127 572.644 203.052 568.472 207.138C559.522 215.897 573.728 249.676 574.509 255.605C575.287 261.531 568.13 275.351 568.13 275.351C568.13 275.351 594.867 280.294 602.132 275.499C602.132 275.499 602.985 227.95 602.207 223.716C601.43 219.486 592.721 206.422 591.166 204.73C589.607 203.034 578.246 202.127 578.246 202.127Z" fill="#F2F2F2"/>
<path d="M581.849 187.698C581.849 187.698 581.792 188.019 581.691 188.559C581.208 191.154 579.351 199.766 578.098 202.134C576.579 204.996 583.289 214.119 589.744 213.006C591.666 212.675 588.12 204.622 588.289 203.769C588.617 202.134 589.06 199.91 589.513 197.624C589.769 196.335 590.025 195.032 590.269 193.804C590.961 190.312 591.522 187.461 591.522 187.461L581.849 187.698Z" fill="#FFBFB2"/>
<path d="M581.691 188.559C581.791 188.019 581.849 187.698 581.849 187.698L591.522 187.461C591.522 187.461 590.961 190.312 590.269 193.804C590.028 195.024 589.769 196.32 589.517 197.606C588.023 197.382 586.461 196.659 584.898 195.291C583.192 193.8 582.072 192.011 581.399 190.1C581.518 189.488 581.619 188.962 581.691 188.559Z" fill="#FE8D71"/>
<path d="M587.667 164.705C587.667 164.705 583.721 165.252 580.863 168.942C578.005 172.632 574.923 184.041 582.026 190.244C589.125 196.45 596.141 189.426 597.182 181.982C598.222 174.537 598.013 164.435 587.667 164.705Z" fill="#FFBFB2"/>
<path d="M599.457 179.436C598.607 181.082 597.185 181.992 596.278 181.47C595.37 180.948 595.324 179.195 596.17 177.55C597.016 175.905 598.441 174.994 599.349 175.516C600.256 176.038 600.302 177.791 599.457 179.436Z" fill="#FFBFB2"/>
<path d="M588.869 164.532C588.869 164.532 582.778 175.383 578.419 175.883C574.059 176.387 573.49 182.151 573.49 182.151C573.49 182.151 575.049 168.867 579.362 166.304C583.678 163.74 588.869 164.532 588.869 164.532Z" fill="#F36523"/>
<path d="M579.844 178.472C580.2 180.398 579.487 182.165 578.253 182.417C577.018 182.669 575.729 181.312 575.376 179.386C575.02 177.46 575.736 175.692 576.967 175.437C578.202 175.185 579.491 176.542 579.844 178.472Z" fill="#FFBFB2"/>
<path d="M548.582 429.611C542.93 430.641 539.168 427.34 537.209 424.87C535.773 427.671 534.891 431.163 535.949 433.463C536.878 435.486 539.412 436.041 541.554 436.12C543.819 436.203 545.939 435.018 547.062 433.053C547.588 432.131 548.128 430.986 548.582 429.611Z" fill="#8EC63F"/>
<path d="M596.782 428.812C590.561 430.407 585.961 429.323 583.387 428.286C582.724 430.166 581.842 432.52 582.31 433.877C582.883 435.54 583.696 435.915 584.413 435.933C590.097 436.084 605.235 436.286 609.569 436.343C610.174 436.35 610.509 435.645 610.12 435.18C609.044 433.899 597.247 429.096 596.782 428.812Z" fill="#8EC63F"/>
<path d="M555.782 238.12L572.421 240.122C572.421 240.122 578.588 223.749 577.443 215.145C576.295 206.544 573.058 205.67 571.255 205.731C566.243 205.896 561.477 212.571 558.223 222.996C554.968 233.426 555.782 238.12 555.782 238.12Z" fill="#E1DDE7"/>
<path d="M554.856 415.661C554.856 415.661 554.309 425.313 554.305 425.334C554.104 426.558 553.315 429.586 553.315 430.702C553.315 434.885 571.935 427.149 567.762 425.291C567.384 425.126 565.404 423.855 565.282 422.433C565.091 420.237 564.605 415.798 564.605 415.798L554.856 415.661Z" fill="#FFBFB2"/>
<path d="M567.716 425.255C567.716 425.255 563.345 426.533 561.106 426.854C558.867 427.174 555.915 424.478 554.331 425.208C552.588 426.008 552.927 435.45 552.927 435.45C552.927 435.45 577.313 437.358 583.905 435.234C586.515 434.392 576.654 428.236 567.716 425.255Z" fill="#666668"/>
<path d="M513.827 415.661C513.827 415.661 513.283 425.313 513.28 425.334C513.078 426.558 512.286 429.586 512.286 430.702C512.286 434.885 530.909 427.149 526.737 425.291C526.359 425.126 523.792 422.908 523.669 421.482C523.479 419.286 523.579 415.798 523.579 415.798L513.827 415.661Z" fill="#FFBFB2"/>
<path d="M526.69 425.255C526.69 425.255 522.32 426.533 520.08 426.854C517.841 427.174 514.886 424.478 513.305 425.208C511.559 426.008 511.113 435.249 511.113 435.249C511.113 435.249 536.99 437.646 542.858 435.947C545.493 435.188 535.629 428.236 526.69 425.255Z" fill="#666668"/>
<path d="M543.34 276.323L551.213 279.718L567.773 358.806L567.1 418.095L553.827 418.401C553.827 418.401 547.649 366.539 547.649 362.522C547.649 358.5 519.051 292.185 519.051 292.185L543.34 276.323Z" fill="#D35422"/>
<path d="M537.263 280.676C537.263 280.676 535.06 340.67 535.06 350.94C535.06 361.211 531.928 418.959 531.928 418.959L513.453 419.56C513.453 419.56 512.492 402.039 511.066 376.259C510.843 372.224 511.354 364.077 511.066 359.897C508.996 329.834 504.903 301.538 506.858 290.316C507.171 288.513 507.761 283.793 508.913 282.602C517.629 273.584 537.263 280.676 537.263 280.676Z" fill="#F36523"/>
<path d="M515.343 189.549C515.343 189.549 506.163 190.823 503.743 192.602C501.022 194.6 498.001 199.071 498.001 199.071C498.001 199.071 509.277 252.362 509.295 261.329C509.313 268.27 506.854 285.305 506.854 285.305C506.854 285.305 540.924 287.454 553.827 282.36C553.827 282.36 549.751 262.1 549.751 256.779C549.751 251.462 544.881 203.085 543.768 199.704C542.764 196.641 540.924 191.133 534.7 189.776C528.475 188.415 515.343 189.549 515.343 189.549Z" fill="#8EC63F"/>
<path d="M538.761 243.758L538.98 245.028C539.095 245.68 539.715 246.119 540.37 246.008L566.704 241.446C567.355 241.331 567.795 240.708 567.683 240.057L567.46 238.786C567.348 238.131 566.725 237.695 566.074 237.807L539.74 242.368C539.085 242.48 538.649 243.102 538.761 243.758Z" fill="#505052"/>
<path d="M501.429 196.41C504.521 196.32 507.254 216.7 505.295 218.709C503.337 220.721 502.963 245.82 502.963 245.82L532.108 245.097L532.112 245.108C532.68 244.726 538.786 240.626 539.661 239.729C540.575 238.786 545.025 239.258 546.202 240.55C547.379 241.842 543.585 240.784 542.537 241.49C541.493 242.195 543.322 243.959 543.322 243.959C543.322 243.959 550.709 245.032 552.149 243.502C553.589 241.976 557.438 239.387 557.96 240.917C558.23 241.706 556.246 244.092 555.13 245.097C556.523 244.053 558.194 242.944 558.766 243.135C559.814 243.488 559.374 244.82 558.809 245.212C558.24 245.604 552.38 250.083 551.462 250.396C550.569 250.702 536.928 251.037 534.574 251.559C534.574 251.559 496.137 260.314 493.952 259.767C492.036 259.288 490.118 246.983 490.118 237.562C490.118 228.137 491.774 196.691 501.429 196.41Z" fill="#FFBFB2"/>
<path d="M505.439 191.763C505.439 191.763 500.061 192.998 494.506 199.24C489.455 204.917 486.273 236.702 486.273 236.702L503.715 239.52L505.108 224.145L509.767 217.114L505.439 191.763Z" fill="#8EC63F"/>
<path d="M589.531 203.909C589.531 203.909 590.748 202.584 593.02 202.743C595.291 202.905 598.265 205.778 598.682 206.807C598.895 207.34 597.469 211.523 596.846 212.445C596.483 212.992 595.64 213.262 595.342 212.974C595.147 212.787 595.352 211.836 595.406 211.631C595.511 211.232 596.267 208.643 596.267 208.643C596.267 208.643 594.798 211.253 594.114 211.408C593.434 211.566 593.052 211.012 593.095 210.796C593.3 209.691 594.445 207.57 594.445 207.57C594.445 207.57 592.724 210.09 591.878 209.828C591.036 209.565 591.385 208.665 591.511 208.362C591.637 208.056 592.814 206.314 592.814 206.314C592.814 206.314 590.953 208.895 590.586 207.97C590.366 207.408 591.583 204.964 591.583 204.964L589.531 203.909Z" fill="#FFBFB2"/>
<path d="M513.489 176.69L514.922 191.1C514.922 191.1 521.895 200.316 526.254 198.279C529.916 196.565 528.188 190.852 528.188 190.852C528.188 190.852 527.554 188.3 526.676 185.366C526.064 183.317 525.552 181.096 525.588 179.469C525.682 175.509 513.489 176.69 513.489 176.69Z" fill="#FFBFB2"/>
<path d="M526.654 185.29C526.049 183.26 525.552 181.078 525.588 179.469C525.682 175.509 513.489 176.69 513.489 176.69L513.669 178.472C513.741 178.67 513.824 178.857 513.914 179.037C516.484 184.016 522.597 186.64 526.654 185.29Z" fill="#FE8D71"/>
<path d="M534.696 154.712C534.696 154.712 536.118 162.858 534.102 168.309C532.09 173.759 529.375 176.891 529.375 176.891L522.975 154.942L534.696 154.712Z" fill="#505052"/>
<path d="M535.971 167.834C535.348 169.778 533.922 171.056 532.796 170.692C531.665 170.328 531.255 168.46 531.881 166.516C532.508 164.572 533.93 163.29 535.06 163.654C536.19 164.018 536.597 165.89 535.971 167.834Z" fill="#FE8D71"/>
<path d="M517.499 155.608C517.218 155.41 510.472 170.886 513.363 176.492C516.25 182.093 523.63 184.714 527.514 182.046C531.813 179.094 536.835 162.866 531.683 156.483C526.531 150.104 517.499 155.608 517.499 155.608Z" fill="#FFBFB2"/>
<path d="M520.563 145.521C515.825 147.022 513.208 148.487 508.557 152.807C502.836 158.121 505.507 167.391 509.061 172.168C512.614 176.942 513.946 181.24 513.946 181.24C513.946 181.24 513.478 175.815 513.449 174.645C513.42 173.608 513.42 170.087 513.255 169.086C512.823 166.448 512.758 165.886 514.27 164.223C515.436 162.941 516.3 159.366 518.169 157.232L525.149 158.65C525.149 158.65 529.559 159.438 532.59 157.998C541.299 153.858 533.123 141.402 520.563 145.521Z" fill="#505052"/>
<path d="M515.044 166.664C515.088 168.701 514.159 170.379 512.974 170.404C511.786 170.426 510.789 168.791 510.749 166.75C510.706 164.709 511.635 163.035 512.823 163.01C514.008 162.984 515.005 164.619 515.044 166.664Z" fill="#FFBFB2"/>
<path d="M499.215 213.064L500.698 206.314C500.698 206.314 505.554 209.396 508.388 213.795C511.217 218.198 512.567 229.934 513.377 230.373C514.184 230.812 523.144 217.006 524.71 214.832C526.65 212.139 527.374 209.05 528.587 206.703C529.8 204.356 534.074 203.556 535.69 203.852C537.31 204.143 533.469 211.008 533.469 211.008C533.469 211.008 523.76 227.878 520.523 237.119C517.287 246.36 507.174 250.763 505.554 249.442C503.934 248.121 499.215 213.064 499.215 213.064Z" fill="#FE8D71"/>
<path d="M528.695 207.995C528.695 207.995 529.098 206.22 530.189 205.857C531.28 205.493 533.177 205.817 533.296 205.857C533.418 205.896 535.517 204.766 535.517 204.766L533.782 207.995C533.782 207.995 530.391 211.991 529.26 210.497C528.13 209.003 528.695 207.995 528.695 207.995Z" fill="#FFBFB2"/>
<path d="M536.122 204.914C536.122 204.914 537.346 211.145 537.036 212.448C536.727 213.759 535.945 213.057 535.798 212.772C535.197 211.602 534.775 207.606 534.775 207.606L536.122 204.914Z" fill="#FE8D71"/>
<path d="M533.487 210.094C533.487 210.094 534.07 213.96 534.671 214.414C535.06 214.709 535.557 214.536 535.719 213.755C535.881 212.974 534.938 208.211 534.938 208.211L533.487 210.094Z" fill="#FE8D71"/>
<path d="M529.915 221.06L527.885 220.07L536.514 202.361C537.637 202.908 538.105 204.262 537.558 205.382L529.915 221.06Z" fill="#505052"/>
<path d="M508.226 185.315C509.446 179.778 510.638 174.206 507.426 168.122C504.827 163.197 500.334 160.364 495.132 159.748C480.401 158.002 483.551 171.754 462.959 174.731C456.558 175.656 450.615 176.546 445.272 179.728C435.624 185.474 431.985 194.693 438.382 209.709C454.046 246.479 492.497 215.264 497.249 208.024C500.781 202.638 507.441 188.879 508.226 185.315Z" fill="#505052"/>
<path d="M449.304 417.587C449.304 417.587 448.257 428.24 445.557 430.194C442.86 432.153 439.264 439.389 441.064 443.298C441.626 444.522 442.749 445.228 444.027 445.624C447.818 446.79 451.85 444.825 453.462 441.203C454.362 439.18 455.154 436.48 455.313 433.082C455.716 424.427 458.412 420.024 458.412 420.024L449.304 417.587Z" fill="#FFBFB2"/>
<path d="M490.747 421.947C490.747 421.947 491.597 432.696 490.909 436.188C490.539 438.06 488.479 441.909 489.426 443.669C490.369 445.43 491.449 445.869 491.449 445.869L515.911 446.265C517.243 446.286 516.365 445.43 515.289 444.641C513.532 443.349 512.113 442.496 506.494 439.785C506.127 439.608 504.795 438.762 504.312 438.467C503.092 437.726 501.868 436.556 500.813 435.382C499.056 433.431 498.901 423.966 498.901 423.966L490.747 421.947Z" fill="#FFBFB2"/>
<path d="M509.871 279.074C509.871 279.074 512.949 296.526 510.929 307.967C508.906 319.408 499.197 425.457 499.197 425.457L488.408 426.065C488.408 426.065 486.147 381.764 486.55 375.604C486.953 369.444 490.157 359.134 490.157 359.134L489.085 323.368L502.696 276.381L509.871 279.074Z" fill="#505052"/>
<path d="M478.158 275.402C478.158 275.402 469.666 288.164 467.643 298.726C465.62 309.285 469.126 341.742 465.234 355.581C463.128 363.072 455.147 374.643 453.934 384.323C452.721 394.004 447.958 419.362 447.958 419.362L458.744 421.497L483.807 358.166L503.466 300.922L508.499 271.442L478.158 275.402Z" fill="#666668"/>
<path d="M485.038 202.797C485.038 202.797 477.597 203.639 473.147 208.481C468.697 213.32 480.34 252.228 481.15 258.392C481.96 264.551 474.519 278.922 474.519 278.922C474.519 278.922 502.318 284.06 509.871 279.074C509.871 279.074 510.677 234.772 509.871 230.373C509.061 225.974 502.318 208.074 500.698 206.314C499.081 204.554 485.038 202.797 485.038 202.797Z" fill="#F36523"/>
<path d="M474.519 212.132C475.235 209.964 477.694 208.92 479.789 209.828C482.662 211.07 486.626 213.428 488.562 217.463C491.799 224.213 503.128 247.386 506.634 248.268C510.141 249.147 524.433 224.213 524.433 224.213C524.433 224.213 524.03 219.81 525.243 217.316C526.456 214.824 530.099 212.182 530.635 213.064C531.175 213.942 528.612 216.146 528.612 216.585C528.612 217.024 529.692 217.316 531.175 216.437C532.659 215.555 533.465 213.777 533.465 213.777C533.465 213.777 535.895 218.198 533.335 222.158C530.772 226.118 529.692 227.73 529.692 227.73C529.692 227.73 513.107 264.551 507.037 264.99C501.385 265.401 468.838 229.3 474.519 212.132Z" fill="#FFBFB2"/>
<path d="M488.782 187.796C488.782 187.796 488.724 188.127 488.62 188.688C488.116 191.388 486.186 200.342 484.883 202.8C483.306 205.778 490.28 215.264 496.994 214.104C498.992 213.759 495.302 205.389 495.482 204.503C495.82 202.804 496.281 200.489 496.749 198.113C497.015 196.774 497.285 195.417 497.537 194.139C498.254 190.514 498.841 187.544 498.841 187.544L488.782 187.796Z" fill="#FFBFB2"/>
<path d="M488.62 188.688C488.724 188.127 488.782 187.796 488.782 187.796L498.84 187.544C498.84 187.544 498.254 190.514 497.537 194.139C497.285 195.41 497.019 196.76 496.756 198.092C495.201 197.865 493.581 197.109 491.954 195.687C490.179 194.139 489.016 192.278 488.314 190.29C488.436 189.653 488.541 189.106 488.62 188.688Z" fill="#FE8D71"/>
<path d="M494.833 163.888C494.833 163.888 490.729 164.457 487.759 168.294C484.786 172.128 481.582 183.994 488.965 190.442C496.349 196.893 503.643 189.592 504.726 181.852C505.806 174.108 505.587 163.607 494.833 163.888Z" fill="#FFBFB2"/>
<path d="M507.088 179.206C506.206 180.916 504.726 181.863 503.783 181.319C502.84 180.779 502.79 178.954 503.672 177.244C504.554 175.534 506.033 174.587 506.976 175.127C507.92 175.671 507.97 177.496 507.088 179.206Z" fill="#FFBFB2"/>
<path d="M496.083 163.708C496.083 163.708 489.747 174.99 485.218 175.512C480.686 176.031 480.092 182.028 480.092 182.028C480.092 182.028 481.712 168.215 486.197 165.551C490.683 162.887 496.083 163.708 496.083 163.708Z" fill="#505052"/>
<path d="M486.698 178.198C487.069 180.203 486.327 182.039 485.045 182.302C483.76 182.565 482.421 181.154 482.054 179.152C481.687 177.147 482.425 175.311 483.71 175.048C484.991 174.785 486.331 176.196 486.698 178.198Z" fill="#FFBFB2"/>
<path d="M454.197 439.299C448.318 440.368 444.408 436.937 442.374 434.367C440.88 437.276 439.962 440.908 441.064 443.298C442.029 445.404 444.664 445.98 446.892 446.063C449.247 446.15 451.45 444.918 452.616 442.874C453.164 441.916 453.725 440.728 454.197 439.299Z" fill="#666668"/>
<path d="M504.309 438.467C497.84 440.123 493.055 438.996 490.38 437.92C489.693 439.871 488.775 442.319 489.261 443.73C489.855 445.458 490.701 445.851 491.45 445.869C497.357 446.024 513.096 446.236 517.604 446.294C518.23 446.304 518.579 445.57 518.172 445.088C517.056 443.756 504.791 438.759 504.309 438.467Z" fill="#666668"/>
<path d="M419.777 442.661C419.417 440.084 420.227 435.645 422.246 428.7C418.247 428.708 414.881 426.936 410.795 427.001C409.675 433.532 407.947 444.252 407.947 444.252L407.764 452.73L436.229 452.943C436.229 452.943 435.995 453.065 427.6 447.762C426.98 447.37 420.126 445.156 419.777 442.661Z" fill="#FFBFB2"/>
<path d="M407.627 454.908H437.014C438.101 454.808 438.367 453.922 437.989 453.375C437.212 452.252 431.481 449.548 427.629 447.755C420.868 448.468 408.988 445.685 407.922 444.119C406.068 449.303 407.022 454.775 407.627 454.908Z" fill="#666668"/>
<path d="M384.313 442.661C383.953 440.084 383.341 436.851 384.241 428.247C380.238 428.258 376.433 427.505 372.343 427.566C372.343 434.284 372.484 444.252 372.484 444.252L372.3 452.73L400.769 452.943C400.769 452.943 400.531 453.065 392.136 447.762C391.517 447.37 384.663 445.156 384.313 442.661Z" fill="#FFBFB2"/>
<path d="M372.164 454.908H401.55C402.638 454.808 402.904 453.922 402.526 453.375C401.748 452.252 396.017 449.548 392.165 447.755C385.404 448.468 373.525 445.685 372.459 444.119C370.605 449.303 371.559 454.775 372.164 454.908Z" fill="#666668"/>
<path d="M405.003 196.832L415.713 185.535C415.713 185.535 427.172 191.838 440.535 197.861C444.207 191.468 450.205 170.436 450.525 169.436C450.849 168.428 443.505 155.795 445.147 155.478C446.792 155.162 448.923 162.225 450.658 161.508C452.397 160.792 456.861 144.405 457.909 145.301C459.863 146.975 455.558 155.493 456.587 156.112C457.62 156.735 460.234 146.669 462.225 147.101C464.216 147.53 458.863 156.26 459.453 157.102C460.04 157.941 465.634 149.747 466.79 151.644C467.416 152.674 461.627 158.78 462.819 159.46C464.011 160.144 469.227 156.299 469.85 157.545C470.472 158.79 464.982 160.086 463.456 163.24C461.933 166.39 459.161 167.618 458.243 173.576C457.325 179.526 454.809 211.376 448.315 213.935C442.648 216.167 405.003 196.832 405.003 196.832Z" fill="#FFBFB2"/>
<path d="M411.922 257.765L403.239 262.611L385.588 289.596L417.153 363.897C417.153 363.897 413.6 375.071 412.44 380.655C411.227 386.494 408.257 436.624 408.257 436.624L421.721 436.851C421.721 436.851 434.515 383.484 436.679 366.161C439.311 345.126 423.294 295.032 423.294 295.032C420.306 284.812 413.866 263.784 413.866 263.784C413.866 263.784 412.293 258.662 411.922 257.765Z" fill="#7EAA37"/>
<path d="M381.696 247.628C381.696 247.628 382.593 253.978 379.003 261.218C376.815 265.635 373.031 269.094 370.324 274.502C365.197 284.736 362.415 299.273 364.337 308.619C364.337 308.619 374.935 349.079 374.514 363.864C374.359 369.318 372.487 379.143 371.292 385.785C370.234 391.656 369.874 435.944 369.874 435.944L384.915 435.494L396.431 364.048L401.298 300.54L411.918 257.769L381.696 247.628Z" fill="#8EC63F"/>
<path d="M413.546 154.398C412.214 148.116 410.842 141.816 404.603 137.291C399.553 133.634 394.127 132.586 388.375 134.674C372.074 140.585 380.843 153.52 360.615 167.304C354.329 171.588 351.946 173.082 347.435 178.792C341.121 186.78 337.672 197.505 340.844 206.328C347.407 224.584 367.743 229.854 378.381 225.984C398.181 218.781 414.68 193.671 415.774 186.816C416.948 179.483 414.399 158.441 413.546 154.398Z" fill="#505052"/>
<path d="M416.706 203.927C421.498 206.145 430.177 209.471 430.177 209.471L435.117 193.854C407.206 177.978 409.395 180.538 388.45 180.851C371.717 181.089 364.701 177.896 350.293 216.794C350.293 216.794 361.263 221.722 365.19 223.306C366.879 218.496 369.931 208.906 371.71 214.374C374.399 222.633 376.372 230.97 377.689 239.556C378.528 244.647 380.357 251.159 379.396 256.343C379.396 256.343 390.793 258.69 399.498 259.072C399.523 259.072 399.549 259.076 399.57 259.072C403.779 258.964 408.084 258.593 411.922 257.765C411.922 257.765 413.628 221.682 414.539 220.174C415.551 218.507 419.817 213.122 416.188 205.065C415.543 203.639 415.716 203.474 416.706 203.927Z" fill="#F36523"/>
<path d="M395.755 266.564C395.953 266.592 396.842 266.474 397.569 266.492C398.577 266.51 399.455 266.664 399.455 266.664C399.455 266.664 399.851 266.322 400.604 265.973C400.917 265.829 401.432 265.775 401.781 265.613C402.141 265.44 402.443 265.138 402.785 264.983C403.675 264.598 404.492 264.508 404.762 264.976C404.985 265.361 400.039 268.385 400.039 268.385C395.459 268.414 390.664 270.747 380.055 263.828C373.993 261.178 344.563 246.641 343.972 243.473C343.637 241.695 348.155 227.932 351.845 217.481C354.689 218.756 360.741 221.448 364.129 222.867C361.022 229.448 357.357 238.178 357.742 239.243C357.843 239.524 358.21 240.024 378.104 253.053C378.608 253.377 379.119 253.715 379.641 254.057C381.041 254.975 382.539 255.951 384.13 256.984L389.804 256.394C389.804 256.394 398.789 257.013 399.059 258.035C399.178 258.503 398.433 258.734 397.515 258.87H397.49C397.353 258.888 397.22 258.906 397.087 258.924C397.076 258.924 397.069 258.924 397.069 258.924C396.079 259.04 395.038 259.058 394.786 259.148C394.498 259.248 393.926 259.472 393.429 259.814C399.034 262.103 398.602 261.286 400.46 261.167C400.928 261.131 401.421 261.268 401.86 261.232C402.616 261.167 403.217 260.721 403.801 260.685C404.654 260.638 405.345 261.034 405.496 261.196C405.694 261.394 405.327 261.678 404.607 262.002C400.28 263.878 396.698 263.162 395.549 263.439C394.779 263.63 396.187 263.918 398.386 263.684C398.933 263.63 399.653 263.828 400.381 263.655C400.867 263.547 401.306 263.234 401.781 263.115C402.22 263.01 402.67 263.018 403.037 262.946C403.523 262.856 404.197 262.488 404.582 262.442C406.018 262.283 406.72 262.532 406.879 262.668C407.213 262.964 400.687 265.469 400.687 265.469C400.687 265.469 396.187 266.114 395.182 266.114C395.182 266.114 394.581 266.384 395.755 266.564Z" fill="#FFBFB2"/>
<path d="M390.509 165.45C390.509 165.45 389.235 175.757 388.483 179.332C387.694 183.076 386.51 194.866 394.271 196.778C402.037 198.693 399.635 183.951 399.765 180.146C399.895 176.34 402.094 163.067 402.094 163.067L390.509 165.45Z" fill="#FFBFB2"/>
<path d="M390.088 168.741C390.167 168.788 390.239 168.838 390.322 168.885C394.609 171.344 398.346 170.955 401.147 169.043C401.647 165.746 402.094 163.067 402.094 163.067L390.509 165.45C390.509 165.45 390.34 166.826 390.088 168.741Z" fill="#FE8D71"/>
<path d="M392.845 138.62C392.845 138.62 388.295 139.898 385.671 144.416C383.05 148.93 381.743 161.904 391.395 167.438C401.05 172.974 407.904 164.108 407.613 155.81C407.321 147.512 405.006 136.535 392.845 138.62Z" fill="#FFBFB2"/>
<path d="M409.744 152.249C409.852 154.406 408.93 156.206 407.685 156.267C406.439 156.332 405.341 154.632 405.237 152.476C405.129 150.32 406.05 148.52 407.296 148.458C408.541 148.394 409.636 150.093 409.744 152.249Z" fill="#FFBFB2"/>
<path d="M394.21 138.278C394.21 138.278 389.005 151.846 383.914 153.29C378.82 154.737 379.227 161.411 379.227 161.411C379.227 161.411 378.575 145.985 383.227 142.202C387.878 138.422 394.21 138.278 394.21 138.278Z" fill="#505052"/>
<path d="M386.095 155.946C386.884 158.067 386.365 160.22 384.947 160.756C383.525 161.292 381.736 160.007 380.951 157.887C380.166 155.763 380.681 153.61 382.103 153.074C383.521 152.541 385.311 153.826 386.095 155.946Z" fill="#FFBFB2"/>
<path d="M264.239 179.426C264.239 179.426 248.471 151.281 244.633 145.301C240.799 139.318 230.806 115.547 230.449 114.611C230.089 113.672 237.329 102.422 235.713 102.036C234.1 101.651 232.311 107.969 230.586 107.213C228.862 106.461 223.825 91.2544 222.843 92.0068C221.007 93.4216 225.557 101.439 224.578 101.946C223.599 102.45 220.629 93.1229 218.706 93.3965C216.78 93.6701 222.367 101.946 221.827 102.677C221.291 103.412 215.491 95.6104 214.444 97.2736C213.875 98.1772 219.772 104.081 218.641 104.636C217.507 105.186 212.259 101.378 211.704 102.476C211.146 103.574 216.557 105.078 218.173 108.041C219.793 111.008 222.547 112.286 223.692 117.776C224.833 123.262 226.543 143.12 232.404 153.027C238.265 162.934 251.153 184.862 251.153 184.862L264.239 179.426Z" fill="#FFBFB2"/>
<path d="M334.123 315.232C334.123 315.232 332.841 313.63 332.456 313.065C332.002 312.402 330.803 310.311 330.803 310.311C330.803 310.311 326.962 302.837 327.538 302.596C328.114 302.358 329.489 303.273 329.885 303.651C330.285 304.029 330.789 304.432 331.189 304.81C331.585 305.188 332.197 305.206 332.701 304.742C333.208 304.281 331.945 302.427 331.383 301.872C329.623 300.148 323.999 296.483 323.42 296.069C322.736 295.58 318.463 281.388 316.612 276.64C313.815 268.781 311.335 260.562 311.043 259.727L309.279 224.044L295.948 219.602C295.948 219.602 297.349 259.23 297.644 261.203C297.788 262.143 305.683 279.858 305.69 279.855C310.125 288.333 314.056 295.792 314.773 297.246C314.773 297.246 315.737 302.168 316.169 305.339C316.601 308.511 318.272 311.258 318.531 312.129C318.567 312.258 319.294 315.311 321.494 318.472C323.387 321.197 322.84 317.723 322.84 317.723C322.84 317.723 320.237 312.028 320.72 311.895C321.094 311.79 322.333 314.987 324.399 318.022C324.932 318.803 325.457 319.574 325.947 320.276C327.236 322.119 328.737 321.838 327.697 319.689C327.329 318.929 326.692 317.684 326.109 316.863C325.483 315.977 325.191 314.955 324.777 314.127C323.956 312.482 323.337 311.294 323.423 311.294C323.535 311.297 323.603 310.854 324.194 311.664C324.903 312.64 325.947 315.052 327.103 316.402C327.758 317.169 329.029 318.854 329.029 318.854C329.029 318.854 331.383 321.359 331.559 321.258C332.51 320.718 331.336 318.436 330.31 317.514C329.961 316.586 328.575 314.85 328.575 314.85C328.575 314.85 326.563 310.7 327.146 310.397C327.625 310.149 334.364 319.131 335.282 318.522C336.027 318.026 334.123 315.232 334.123 315.232Z" fill="#FFBFB2"/>
<path d="M310.28 176.214C310.604 168.428 309.455 160.742 305.974 153.495C302.979 147.26 295.563 143.724 288.802 143.714C267.335 143.685 264.606 172.053 250.937 182.993C246.761 186.338 242.096 189.059 238.143 192.663C223.556 205.979 230.126 230.621 243.525 242.292C252.82 250.392 267.432 254.993 278.891 248.661C284.871 245.356 289.41 239.862 292.647 233.843C297.237 225.3 300.196 215.444 303.461 206.339C306.939 196.648 309.851 186.557 310.28 176.214Z" fill="#505052"/>
<path d="M243.172 426.807C243.172 426.807 241.66 437.276 239.057 440.656C238.182 441.79 236.588 443.223 235.54 445.271C233.909 448.464 234.813 453.213 236.015 455.826C236.631 457.173 235.972 457.166 237.376 457.601C241.538 458.883 245.966 456.723 247.737 452.745C248.727 450.524 249.594 447.557 249.771 443.824C250.214 434.316 253.176 429.482 253.176 429.482L243.172 426.807Z" fill="#FFBFB2"/>
<path d="M288.694 431.595C288.694 431.595 289.627 443.399 288.871 447.237C288.464 449.292 286.203 453.522 287.24 455.456C288.276 457.389 289.465 457.871 289.465 457.871L316.335 458.303C317.8 458.328 316.832 457.389 315.651 456.521C313.718 455.103 312.159 454.167 305.989 451.186C305.585 450.992 304.12 450.063 303.595 449.742C302.252 448.925 300.909 447.64 299.75 446.351C297.82 444.209 297.651 433.812 297.651 433.812L288.694 431.595Z" fill="#FFBFB2"/>
<path d="M309.696 274.66C309.696 274.66 313.08 293.83 310.859 306.398C308.638 318.965 297.975 435.45 297.975 435.45L286.123 436.116C286.123 436.116 283.639 387.459 284.082 380.691C284.529 373.926 288.042 362.601 288.042 362.601L286.865 323.314L301.819 271.701L309.696 274.66Z" fill="#7EAA37"/>
<path d="M274.866 270.628C274.866 270.628 265.535 284.646 263.314 296.246C261.093 307.845 264.945 343.496 260.672 358.698C258.357 366.928 249.587 379.636 248.255 390.27C246.923 400.901 241.692 428.758 241.692 428.758L253.54 431.102L281.069 361.535L302.662 298.661L308.192 266.279L274.866 270.628Z" fill="#8EC63F"/>
<path d="M282.419 190.877C282.419 190.877 270.067 190.092 265.179 195.41C260.29 200.723 276.022 242.782 276.911 249.55C277.797 256.318 272.379 274.311 272.379 274.311C272.379 274.311 301.402 280.139 309.696 274.66C309.696 274.66 310.585 226.002 309.696 221.168C308.807 216.333 301.402 196.677 299.623 194.744C297.849 192.81 282.419 190.877 282.419 190.877Z" fill="#17D3B7"/>
<path d="M286.534 174.4C286.534 174.4 286.469 174.764 286.354 175.383C285.803 178.346 283.683 188.181 282.25 190.884C280.518 194.15 288.179 204.572 295.552 203.301C297.748 202.919 293.698 193.725 293.892 192.749C294.263 190.884 294.771 188.343 295.286 185.733C295.577 184.264 295.872 182.77 296.15 181.37C296.938 177.384 297.582 174.126 297.582 174.126L286.534 174.4Z" fill="#FFBFB2"/>
<path d="M286.354 175.383C286.469 174.764 286.534 174.4 286.534 174.4L297.582 174.126C297.582 174.126 296.938 177.384 296.149 181.37C295.876 182.763 295.581 184.246 295.293 185.711C293.586 185.459 291.804 184.631 290.015 183.072C288.067 181.37 286.789 179.325 286.019 177.14C286.156 176.441 286.271 175.844 286.354 175.383Z" fill="#FE8D71"/>
<path d="M293.972 149.337C293.972 149.337 288.762 148.736 285.497 152.951C282.236 157.163 278.715 170.195 286.826 177.276C294.933 184.361 302.946 176.344 304.134 167.841C305.322 159.338 305.783 149.031 293.972 149.337Z" fill="#FFBFB2"/>
<path d="M306.532 167.715C305.563 169.594 303.94 170.634 302.903 170.037C301.866 169.443 301.812 167.438 302.781 165.558C303.749 163.683 305.373 162.642 306.409 163.236C307.446 163.834 307.5 165.839 306.532 167.715Z" fill="#FFBFB2"/>
<path d="M294.551 147.944C294.551 147.944 287.596 160.335 282.617 160.907C277.642 161.48 276.987 168.064 276.987 168.064C276.987 168.064 278.769 152.894 283.694 149.967C288.622 147.04 294.551 147.944 294.551 147.944Z" fill="#505052"/>
<path d="M248.543 450.653C242.089 451.827 237.794 448.058 235.558 445.239C233.917 448.432 233.117 453.202 234.323 455.826C235.389 458.141 238.492 458.076 240.94 458.166C243.525 458.26 245.527 456.827 246.812 454.581C247.409 453.53 248.029 452.223 248.543 450.653Z" fill="#666668"/>
<path d="M303.591 449.739C296.485 451.56 291.229 450.322 288.291 449.138C287.531 451.283 286.527 453.972 287.06 455.524C287.715 457.421 288.644 457.85 289.465 457.871C295.955 458.04 313.239 458.274 318.189 458.339C318.88 458.346 319.262 457.54 318.819 457.011C317.591 455.549 304.12 450.063 303.591 449.739Z" fill="#666668"/>
<path d="M283.924 164.021C284.327 166.221 283.513 168.24 282.106 168.528C280.695 168.816 279.226 167.268 278.819 165.069C278.416 162.866 279.229 160.85 280.641 160.562C282.048 160.27 283.517 161.822 283.924 164.021Z" fill="#FFBFB2"/>
<path d="M259.876 170.303C259.876 170.303 277.314 189.023 279.91 196.565C282.502 204.107 277.379 214.9 270.309 215.372C263.238 215.843 247.499 182.151 247.499 182.151L259.876 170.303Z" fill="#17D3B7"/>
<path d="M627.533 434.936C627.533 434.936 628.188 440.584 628.188 441.542C628.188 442.499 628.188 442.499 628.188 442.499L627.717 443.475L627.533 443.86L630.91 448.601C630.91 448.601 644.471 448.803 644.774 448.803C645.076 448.803 642.959 445.527 642.959 445.527C642.959 445.527 638.474 442.146 637.667 439.778C636.861 437.409 638.351 432.466 638.351 432.466L627.533 434.936Z" fill="#FFBFB2"/>
<path d="M562.157 401.15C562.157 401.15 557.326 404.145 556.573 404.742C555.824 405.336 555.825 405.336 555.825 405.336L555.353 406.312L555.166 406.697L549.355 406.996C549.355 406.996 540.762 396.502 540.575 396.264C540.388 396.027 543.048 396.621 543.048 396.621C543.048 396.621 548.47 397.352 550.828 396.513C553.182 395.67 557.952 390.972 557.952 390.972L562.157 401.15Z" fill="#FFBFB2"/>
<path d="M606.052 348.168L554.021 392.484L562.039 403.828C562.039 403.828 615.506 370.629 618.307 370.251C621.104 369.873 623.372 371.158 623.901 373.199C624.43 375.24 625.777 436.509 625.777 436.509H639.669L646.916 359.372L606.052 348.168Z" fill="#505052"/>
<path d="M681.015 284.96C684.867 282.436 693.91 272.73 696.974 269.426C697.006 269.037 697.297 266.794 699.76 263.943C701.499 261.927 702.816 257.33 703.958 258.633C705.099 259.936 702.269 263.586 703.565 263.612C704.861 263.637 711.294 256.404 712.331 257.585C713.364 258.766 706.83 265.196 707.99 265.217C709.149 265.239 714.451 258.726 715.917 260.397C717.378 262.064 708.961 267.478 709.746 268.374C710.531 269.267 715.747 265.721 716.921 267.064C718.098 268.407 709.57 271.571 710.25 271.586C710.934 271.596 715.856 271.463 715.892 272.414C715.935 273.483 703.439 275.15 701.909 277.004C698.644 282.202 692.833 291.699 686.951 295.864C679.751 300.958 663.108 311.772 663.108 311.772L654.846 301.091C654.846 301.091 676.45 287.951 681.015 284.96Z" fill="#FFBFB2"/>
<path d="M703.565 265.908C703.885 266.542 704.022 267.226 704.069 267.917C704.044 268.029 704.346 270.261 702.442 271.956C703.183 270.578 704.001 269.044 703.565 265.908Z" fill="#FE8D71"/>
<path d="M604.738 273.278C601.682 269.832 595.49 258.1 593.398 254.111C593.467 253.73 593.773 251.487 592.142 248.088C590.986 245.691 590.918 240.906 589.478 241.868C588.034 242.825 589.813 247.091 588.556 246.774C587.296 246.458 582.976 237.796 581.669 238.667C580.363 239.535 584.989 247.448 583.865 247.167C582.739 246.882 579.322 239.211 577.475 240.442C575.629 241.67 582.332 249.096 581.342 249.755C580.352 250.414 576.248 245.626 574.757 246.612C573.271 247.602 580.676 252.891 580.017 252.722C579.355 252.556 574.639 251.141 574.354 252.045C574.034 253.071 585.658 257.945 586.648 260.138C588.441 266.006 591.566 276.69 596.156 282.249C601.775 289.053 615.009 303.838 615.009 303.838L625.777 295.691C625.777 295.691 608.36 277.356 604.738 273.278Z" fill="#FFBFB2"/>
<path d="M587.951 248.992C587.48 249.518 587.166 250.144 586.943 250.799C586.936 250.914 586.061 252.988 587.454 255.123C587.098 253.596 586.713 251.904 587.951 248.992Z" fill="#FE8D71"/>
<path d="M627.735 297.596C629.301 295.256 631.998 293.931 634.809 294.122C643.071 294.683 659.825 296.008 661.413 297.596C663.53 299.716 669.884 313.529 663.832 332.89C657.784 352.251 654.454 350.235 649.515 350.235C644.572 350.235 621.28 339.244 621.28 339.244L627.735 297.596Z" fill="#666668"/>
<path d="M613.464 281.162L603.751 293.834L615.808 311.772C615.808 311.772 614.674 325.1 612.935 329.261C611.196 333.419 601.138 350.512 601.138 350.512C601.138 350.512 625.564 365.484 649.464 363.292C649.464 363.292 656.196 328.656 658.086 325.326C659.976 322 678.203 305.512 678.203 305.512L669.354 291.216L654.076 299.687C654.076 299.687 626.154 295.176 624.808 293.834C623.465 292.487 613.464 281.162 613.464 281.162Z" fill="#F36523"/>
<path d="M644.975 255.245C644.975 255.245 635.547 250.252 632.321 258.521C632.321 258.521 623.85 257.664 625.312 266.438C625.312 266.438 616.791 270.725 622.187 281.766C622.187 281.766 619.818 292.152 631.968 292.808C631.968 292.808 633.783 296.487 639.33 295.63C644.874 294.773 646.286 293.312 646.286 293.312C646.286 293.312 656.117 296.184 659.094 287.31C659.094 287.31 665.848 285.698 661.312 277.025C661.312 277.025 667.212 265.782 656.826 262.406C656.826 262.406 655.617 250.907 644.975 255.245Z" fill="#505052"/>
<path d="M648.784 279.603C648.017 281.738 648.568 283.894 650.015 284.409C651.459 284.927 653.251 283.617 654.018 281.478C654.785 279.34 654.234 277.187 652.787 276.669C651.343 276.15 649.551 277.464 648.784 279.603Z" fill="#FFBFB2"/>
<path d="M623.354 274.354C623.246 276.622 624.401 278.519 625.935 278.591C627.469 278.663 628.801 276.885 628.909 274.617C629.013 272.349 627.857 270.452 626.324 270.376C624.79 270.304 623.462 272.086 623.354 274.354Z" fill="#FFBFB2"/>
<path d="M634.135 289.377C634.135 289.528 632.911 294.791 632.26 297.574C632.019 298.611 632.544 299.673 633.516 300.116C636.108 301.3 641.206 302.952 644.727 299.759C645.047 299.468 645.22 299.046 645.205 298.614L644.773 286.05L634.135 289.377Z" fill="#FFBFB2"/>
<path d="M633.48 292.325C636.224 293.708 639.672 293.736 643.542 291.468C644.036 291.18 644.496 290.874 644.928 290.554L644.774 286.05L634.136 289.377C634.136 289.449 633.851 290.72 633.48 292.325Z" fill="#FE8D71"/>
<path d="M641.681 260.368C641.681 260.368 646.322 261.596 649.05 266.114C651.779 270.632 653.288 283.689 643.542 289.402C633.801 295.112 626.712 286.266 626.896 277.9C627.083 269.534 630.802 258.834 641.681 260.368Z" fill="#FFBFB2"/>
<path d="M625.784 294.269C621.298 297.66 616.604 315.041 614.825 319.581L613.396 327.915L631.648 295.673C631.648 295.673 626.748 293.538 625.784 294.269Z" fill="#8EC63F"/>
<path d="M647.945 298.668C647.945 298.668 647.398 320.085 649.011 327.443C650.623 334.805 654.846 337.379 654.846 337.379L656.92 328.815C656.92 328.815 654.846 309.9 654.076 299.687C653.961 298.139 647.945 298.668 647.945 298.668Z" fill="#8EC63F"/>
<path d="M625.06 452.072C622.99 451.809 626.568 444.627 627.717 443.475L642.959 445.527C642.959 445.527 650.296 448.929 652.035 450.668C652.449 451.082 652.503 451.802 650.71 452.072C644.961 452.925 629.657 452.651 625.06 452.072Z" fill="#666668"/>
<path d="M550.123 413.847C551.912 414.923 555.166 407.928 555.353 406.312L543.049 396.621C543.049 396.621 533.552 393.896 531.637 395.814C529.894 397.553 546.062 411.406 550.123 413.847Z" fill="#666668"/>
<path d="M452.332 253.762C452.332 253.762 458.383 251.57 462.293 257.7C466.206 263.831 464.089 263.248 465.994 266.315C467.895 269.379 468.813 278.094 469.468 282.807C476.175 330.849 395.938 334.744 427.272 273.504C430.21 267.759 432.697 264.306 435.34 258.176C437.982 252.045 449.16 252.282 452.332 253.762Z" fill="#505052"/>
<path d="M435.164 298.647L427.075 295.817C427.075 295.817 423.86 299.921 422.899 310.192C421.934 320.459 422.899 326.496 422.899 326.496H432.05L435.164 298.647Z" fill="#E1DDE7"/>
<path d="M451.378 293.132C448.631 293.416 428.212 291.476 427.075 295.817C420.955 319.163 429.368 351.387 431.517 353.54C433.666 355.689 468.763 348.687 468.763 348.687C468.763 348.687 474.267 290.774 451.378 293.132Z" fill="#E1DDE7"/>
<path d="M479.249 269.206C479.249 269.206 476.995 268.13 474.943 264.332C473.626 261.894 469.716 258.773 471.343 258.266C472.974 257.762 475.465 261.88 475.933 260.703C476.401 259.522 471.743 250.601 473.219 250.144C474.695 249.687 478.554 258.363 478.972 257.308C479.389 256.253 475.03 248.672 477.114 248.024C479.202 247.376 481.452 257.355 482.572 257.009C483.691 256.66 482.061 249.046 483.738 248.528C485.419 248.006 485.182 257.942 485.787 257.654C486.111 257.499 487.601 252.689 488.512 253.049C489.541 253.456 486.759 263.334 487.993 265.512C489.232 267.69 499.117 294.755 495.737 298.136C492.054 301.822 468.611 310.271 463.708 308.817C458.801 307.362 455.989 302.517 457.17 299.536C458.351 296.555 481.524 289.859 481.895 288.923C482.266 287.987 479.249 269.206 479.249 269.206Z" fill="#FFBFB2"/>
<path d="M481.128 260.656C481.838 260.624 482.532 260.782 483.206 261.03C483.303 261.099 485.528 261.75 486.482 264.206C485.427 262.949 484.253 261.56 481.128 260.656Z" fill="#FE8D71"/>
<path d="M499.215 424.118C499.215 424.118 503.747 442.611 507.127 445.512C510.504 448.418 521.524 453.969 518.64 454.566C515.757 455.164 494.419 455.661 495.003 452.1C495.589 448.544 496.201 446.272 496.201 446.272L490.557 433.067L499.215 424.118Z" fill="#FFBFB2"/>
<path d="M520.077 455.326C514.871 455.844 499.676 456.392 495.248 455.823C495.248 455.823 494.42 455.661 495.003 452.1C495.147 451.233 495.291 450.437 495.428 449.735C499.445 450.79 508.19 448.547 511.653 448.086C515.415 449.886 519.659 452.579 521.027 452.802C523.007 453.13 523.007 455.034 520.077 455.326Z" fill="#666668"/>
<path d="M449.452 439.623C449.452 439.623 448.973 444.299 448.973 446.362C448.973 448.421 450.895 454.235 450.006 455.124C449.117 456.014 423.697 455.906 423.697 455.067C423.697 454.232 428.19 451.694 434.292 449.948C440.398 448.205 442.475 441.444 440.887 437.56L449.452 439.623Z" fill="#FFBFB2"/>
<path d="M423.287 455.124C423.287 454.347 427.456 451.949 432.856 450.3C438.609 452.244 446.597 450.639 449.592 450.066C450.507 452.464 450.802 454.739 450.33 455.211C449.441 456.1 423.287 455.963 423.287 455.124Z" fill="#666668"/>
<path d="M477.039 361.452L481.6 365.495C481.6 365.495 486.73 379.388 487.029 380.306C487.447 381.58 504.068 435.152 504.068 435.152L492.487 439.317C492.487 439.317 481.003 416.946 479.102 409.178C477.197 401.409 458.171 368.904 458.171 368.904L477.039 361.452Z" fill="#F36523"/>
<path d="M456.904 369.696L451.353 440.696H438.511C438.511 440.696 433.911 387.56 435.498 368.904L456.904 369.696Z" fill="#F36523"/>
<path d="M434.386 298.186C434.386 298.186 442.555 296.044 451.828 295.529C456.634 295.263 463.085 296.282 463.085 296.282C463.085 296.282 468.953 309.443 470.699 320.225C472.442 331.007 481.957 365.574 481.957 365.574C481.957 365.574 462.61 380.478 434.386 370.647V298.186Z" fill="#8EC63F"/>
<path d="M456.375 286.4C456.375 286.4 456.119 294.816 456.911 295.608C457.703 296.4 458.805 297.711 457.642 299.72C456.479 301.728 451.432 300.447 449.081 299.295C446.824 298.193 445.366 296.138 445.366 296.138L446.543 282.807L456.375 286.4Z" fill="#FFBFB2"/>
<path d="M453.019 289.888C451.396 289.319 448.566 288.225 446.377 284.672L446.543 282.807L456.375 286.4C456.375 286.4 456.313 288.452 456.346 290.626C454.967 290.572 453.79 290.158 453.019 289.888Z" fill="#FE8D71"/>
<path d="M444.812 273.285C444.812 273.285 444.574 268.335 441.532 269.296C438.494 270.257 440.808 277.727 443.328 277.482C445.848 277.238 444.812 273.285 444.812 273.285Z" fill="#FFBFB2"/>
<path d="M454.366 257.117C454.366 257.117 459.122 257.013 461.555 260.714C463.985 264.411 466.628 274.984 462.61 282.278C458.593 289.571 453.466 287.775 451.353 287.033C449.24 286.295 445.064 284.654 442.951 277.839C440.834 271.02 442.367 255.692 454.366 257.117Z" fill="#FFBFB2"/>
<path d="M435.297 297.963C437.464 302.859 442.803 313.4 442.554 325.028C442.299 337.21 433.137 345.116 433.137 345.116V351.135C433.137 351.135 443.249 349.544 447.112 333.804C450.978 318.069 441.679 296.688 441.679 296.688C441.679 296.688 440.351 295.742 437.719 296.476C435.966 296.966 435.297 297.963 435.297 297.963Z" fill="#F2F2F2"/>
<path d="M457.505 295.486C457.505 295.486 465.101 336.371 474.954 339.021L473.237 332.051C473.237 332.051 463.085 298.971 463.085 296.282C463.085 293.592 457.505 295.486 457.505 295.486Z" fill="#F2F2F2"/>
<path d="M478.057 365.448H448.581V331.86L478.057 333.171V365.448Z" fill="#F36523"/>
<path d="M478.057 330.55H449.891C449.167 330.55 448.581 331.137 448.581 331.86C448.581 332.584 449.167 333.171 449.891 333.171H478.057L478.032 333.16C476.088 332.429 476.099 331.274 478.057 330.55Z" fill="#F36523"/>
<path d="M477.251 330.939H450.86C450.352 330.939 449.938 331.349 449.938 331.86C449.938 332.368 450.352 332.782 450.86 332.782H477.251C476.358 332.21 476.358 331.508 477.251 330.939Z" fill="#F2F2F2"/>
<path d="M465.137 331.126H463.283C462.884 331.126 462.56 331.45 462.56 331.85V331.914H465.137V331.126Z" fill="#666668"/>
<path d="M463.359 331.13C463.802 331.13 464.464 331.504 464.838 331.968L469.241 337.426H471.826L467.639 332.231C467.146 331.623 466.271 331.126 465.688 331.126L463.359 331.13Z" fill="#666668"/>
<path d="M434.386 298.186C434.386 298.186 436.611 300.414 438.991 308.86C441.367 317.309 442.58 337.088 444.639 339.147C446.702 341.21 460.18 351.938 462.61 351.567C465.044 351.196 470.487 344.856 472.179 344.856C473.867 344.856 473.659 346.386 472.813 347.232C471.967 348.078 470.937 349.058 471.437 349.558C471.941 350.062 471.941 350.062 471.941 350.062C471.941 350.062 479.473 348.078 480.74 348.82C482.007 349.558 479.523 351.304 479.523 352.571C479.523 353.842 479.836 353.817 479.681 355.214C479.53 356.61 479.181 357.726 478.519 358.385C477.86 359.048 469.537 361.452 461.397 360.34C453.257 359.231 443.321 355.322 435.974 346.228C428.626 337.138 430.099 308.565 430.264 305.717C430.689 298.503 434.386 298.186 434.386 298.186Z" fill="#FFBFB2"/>
<path d="M341.265 58.138L334.381 58.8364L332.034 47.8852L321.843 47.6656L318.747 39.7564L314.74 41.326L318.883 51.9028L328.542 52.1116L330.983 63.5056L341.34 62.4544L341.265 58.138Z" fill="#F2F2F2"/>
<path d="M446.284 71.5156L450.143 64.996L446.961 58.1164C446.597 57.3352 447.292 56.4748 448.131 56.662L455.529 58.3216L461.087 53.1664C461.717 52.5796 462.75 52.972 462.829 53.8324L463.539 61.378L470.159 65.0716C470.911 65.4928 470.857 66.5944 470.065 66.9364L463.107 69.9424L461.641 77.38C461.472 78.226 460.407 78.514 459.838 77.866L454.827 72.178L447.303 73.0816C446.446 73.1824 445.841 72.2608 446.284 71.5156Z" fill="#F2F2F2"/>
<path d="M563.169 65.3236C563.169 65.3236 563.633 62.3176 566.546 61.0828C569.145 59.9812 571.971 61.6696 573.177 64.5208C574.574 67.8148 573.785 72.7504 568.886 78.8236C561.117 78.118 557.024 75.2488 555.627 71.9512C554.421 69.1036 555.177 65.8996 557.773 64.798C560.685 63.5668 563.169 65.3236 563.169 65.3236Z" fill="#F36523"/>
<path d="M260.481 40.6565C260.481 40.6565 261.367 38.1653 264.326 37.2761C266.961 36.4805 269.413 38.032 270.147 40.4728C270.997 43.2988 269.524 47.3885 263.962 52.2305C256.654 51.2585 253.169 48.6593 252.32 45.8333C251.585 43.3925 252.773 40.7501 255.412 39.9545C258.371 39.0653 260.481 40.6565 260.481 40.6565Z" fill="#8EC63F"/>
<path d="M239.007 48.3316C241.696 47.9788 243.838 47.5577 245.926 47.0429C246.614 46.8737 247.856 46.7837 248.187 46.0745C248.36 45.7073 248.306 45.3257 247.953 45.0809C247.305 44.6345 246.326 45.1133 245.631 45.2861C243.518 45.8045 241.102 46.2905 238.632 46.6433C238.168 46.7081 237.88 47.2445 237.974 47.6765C238.082 48.1661 238.543 48.3928 239.007 48.3316Z" fill="#8EC63F"/>
<path d="M275.619 45.0988C276.634 44.8684 277.645 44.6164 278.657 44.3716C279.622 44.134 280.81 44.0224 281.645 43.4716C282.261 43.0612 282.102 42.1468 281.328 42.0676C280.328 41.9632 279.24 42.406 278.272 42.6436C277.26 42.8956 276.249 43.144 275.241 43.4104C274.168 43.6912 274.528 45.3472 275.619 45.0988Z" fill="#8EC63F"/>
<path d="M251.567 59.3008C252.316 56.8636 253.702 55.8304 254.685 54.7252C255.211 54.1348 254.635 53.2852 253.889 53.5948C251.852 54.4444 250.513 56.7808 249.915 58.8004C249.598 59.866 251.236 60.3664 251.567 59.3008Z" fill="#8EC63F"/>
<path d="M264.523 61.81C264.232 60.7768 264.142 59.7148 264.289 58.6492C264.383 57.994 265.182 56.0392 263.919 56.014C262.731 55.9924 262.572 57.976 262.493 58.8184C262.389 59.9452 262.507 61.1044 262.828 62.188C263.141 63.2572 264.829 62.8936 264.523 61.81Z" fill="#8EC63F"/>
<path d="M271.561 53.3644C272.224 53.638 272.883 53.908 273.545 54.1816C274.204 54.4516 274.888 54.916 275.59 54.5848C275.986 54.3976 276.047 53.9404 275.91 53.5768C275.658 52.9144 274.661 52.7272 274.06 52.4824C273.398 52.216 272.735 51.946 272.073 51.6796C271.63 51.4996 271.104 51.8416 270.975 52.2664C270.827 52.7596 271.119 53.1844 271.561 53.3644Z" fill="#8EC63F"/>
<path d="M252.021 36.1385C248.622 31.4873 248.658 31.4513 248.122 31.1309C247.571 30.8033 246.829 31.2965 246.984 31.9409C247.135 32.5781 247.121 32.4701 250.717 37.3517C251.002 37.7369 251.65 37.6973 251.974 37.3985C252.363 37.0385 252.309 36.5273 252.021 36.1385Z" fill="#8EC63F"/>
<path d="M261.241 33.8488C261.37 32.9092 261.395 31.966 261.323 31.0192C261.255 30.1408 261.266 28.7836 260.337 28.384C260.139 28.2976 259.822 28.3768 259.678 28.5352C259.081 29.1976 259.509 30.3136 259.567 31.1236C259.632 32.0092 259.603 32.902 259.516 33.784C259.473 34.2484 259.901 34.6624 260.344 34.6804C260.848 34.6984 261.176 34.3132 261.241 33.8488Z" fill="#8EC63F"/>
<path d="M274.474 31.5448C274.528 31.1164 274.121 30.8213 273.75 30.7673C272.987 30.6593 272.235 31.5593 271.734 32.0453C271.148 32.6141 270.626 33.2333 270.14 33.8885C269.859 34.2629 270.046 34.8532 270.42 35.0836C270.86 35.3572 271.324 35.17 271.619 34.8028C273.542 32.398 274.337 32.6068 274.474 31.5448Z" fill="#8EC63F"/>
<path d="M198.903 28.5856L200.199 20.7916H193.114L191.821 28.5856H198.903ZM185.662 40.4368L187.12 31.7536H183.12C182.245 31.7536 181.536 31.0444 181.536 30.1696C181.536 29.2948 182.245 28.5856 183.12 28.5856H187.735L189.028 20.7916H184.755C183.88 20.7916 183.171 20.0824 183.171 19.2076C183.171 18.3328 183.88 17.6236 184.755 17.6236H189.64L191.184 8.67757C191.317 7.91437 191.976 7.35999 192.747 7.35999H193.492C194.471 7.35999 195.216 8.23839 195.058 9.20319L193.661 17.6236H200.742L202.287 8.67757C202.42 7.91437 203.078 7.35999 203.849 7.35999H204.663C205.642 7.35999 206.387 8.23839 206.229 9.20319L204.832 17.6236H208.831C209.706 17.6236 210.415 18.3328 210.415 19.2076C210.415 20.0824 209.706 20.7916 208.831 20.7916H204.216L202.992 28.5856H207.265C208.14 28.5856 208.849 29.2948 208.849 30.1696C208.849 31.0444 208.14 31.7536 207.265 31.7536H202.377L200.829 40.9624C200.703 41.7256 200.04 42.2836 199.266 42.2836H198.395C197.412 42.2836 196.667 41.4052 196.833 40.4368L198.291 31.7536H191.206L189.658 40.9624C189.532 41.7256 188.869 42.2836 188.095 42.2836H187.224C186.241 42.2836 185.5 41.4052 185.662 40.4368Z" fill="#F36523"/>
<path d="M433.695 38.3417L429.432 32.4665L422.178 32.6465C421.35 32.6681 420.861 31.7321 421.347 31.0625L425.616 25.1945L423.204 18.3509C422.927 17.5697 423.665 16.8137 424.45 17.0693L431.351 19.3157L437.115 14.9057C437.773 14.4053 438.72 14.8733 438.72 15.6977L438.713 22.9553L444.689 27.0737C445.369 27.5453 445.218 28.5893 444.433 28.8449L437.529 31.0841L435.459 38.0393C435.221 38.8313 434.181 39.0077 433.695 38.3417Z" fill="#8EC63F"/>
<path d="M152.895 138.353L120.955 139.642C117.19 139.793 114.011 136.863 113.86 133.097L113.133 115.112C112.981 111.342 115.912 108.167 119.681 108.016L151.617 106.724C155.386 106.572 158.561 109.503 158.716 113.272L159.443 131.254C159.594 135.023 156.664 138.198 152.895 138.353Z" fill="#17D3B7"/>
<path d="M157.553 118.017L170.477 132.514L153.863 128.583L157.553 118.017Z" fill="#17D3B7"/>
<path d="M127.05 121.354L131.136 121.084C131.136 121.084 136.104 116.991 136.198 115.623C136.291 114.255 135.309 111.418 136.09 111.018C136.871 110.619 138.552 110.252 139.708 112.001C140.547 113.272 140.129 118.074 140.626 118.37C140.935 118.553 143.286 118.467 145.003 118.373C146.134 118.312 147.203 118.884 147.779 119.856L147.783 119.86C148.171 120.519 148.049 121.358 147.487 121.876L146.609 122.682L147.372 123.6C147.941 124.288 147.851 125.303 147.171 125.876L146.476 126.459L146.998 126.995C147.667 127.69 147.585 128.81 146.825 129.4L146.206 129.879L146.31 130.052C146.746 130.768 146.559 131.7 145.882 132.194L145.263 132.651L134.38 133.367C133.361 133.436 132.339 133.292 131.374 132.95L127.507 132.568C127.09 132.528 126.766 132.186 126.744 131.769L126.265 122.24C126.24 121.779 126.593 121.383 127.05 121.354Z" fill="white"/>
<path d="M691.401 208.719C692.646 211.156 695.296 212.315 697.377 211.304C699.494 210.278 700.221 207.408 699 204.896C697.784 202.379 695.08 201.17 692.963 202.196C692.412 202.462 691.959 202.858 691.602 203.337L688.409 196.119L700.66 194.207L706.121 206.552C706.128 206.566 706.132 206.58 706.139 206.595C707.36 209.111 710.063 210.317 712.18 209.291C714.293 208.269 715.02 205.396 713.8 202.883C712.583 200.367 709.88 199.157 707.763 200.183C707.212 200.45 706.758 200.846 706.406 201.324L700.556 188.102C700.368 187.673 699.947 187.418 699.558 187.49L684.291 190.287C683.783 190.38 683.538 190.982 683.787 191.54L691.39 208.722L691.401 208.719Z" fill="#F36523"/>
<path d="M643.74 123.183L632.537 122.398L632.724 129.872L629.142 129.962L628.854 118.55L639.993 119.327L639.622 110.54L649.803 111.065L650.667 101.982L654.234 102.321L653.046 114.824L643.366 114.32L643.74 123.183Z" fill="#F2F2F2"/>
<path d="M510.332 91.0672C509.604 96.7912 515.562 101.331 520.865 100.974C526.722 100.578 531.69 95.7724 532.547 90.016C533.476 83.7844 529.732 78.802 523.94 78.3448C518.302 77.8984 514.695 82.9168 516.322 87.982C517.488 91.6144 520.804 92.968 522.474 91.9672C523.774 91.186 523.695 89.2168 522.122 88.8676C521.488 88.7272 520.84 89.08 520.502 89.566C519.123 89.0188 517.812 86.506 518.702 83.7952C519.839 80.332 524.217 80.134 526.938 81.7504C530.398 83.806 530.942 88.2304 529.674 91.7584C528.339 95.4628 524.703 98.3824 520.743 98.6632C516.257 98.98 512.308 95.542 511.948 91.0744C511.865 90.0196 510.461 90.0448 510.332 91.0672Z" fill="#17D3B7"/>
<path d="M68.3416 163.884C87.0796 167.373 100.533 179.534 98.3872 191.043C97.318 196.799 92.548 201.303 85.708 203.931L90.1504 222.32L76.6036 206.145C71.6572 206.76 66.1996 206.613 60.5764 205.569C41.8384 202.077 28.3888 189.92 30.5308 178.407C32.6728 166.898 49.6036 160.392 68.3416 163.884Z" fill="#F2F2F2"/>
<path d="M76.9202 189.178C74.0438 195.165 66.8618 197.688 60.875 194.812C54.8846 191.936 52.3646 184.75 55.241 178.763C58.1174 172.773 65.2994 170.249 71.2862 173.126C77.2766 176.002 79.7966 183.191 76.9202 189.178Z" fill="#F36523"/>
<path d="M59.4603 182.903C57.9231 186.104 59.2694 189.948 62.4734 191.486C65.6738 193.023 69.5151 191.673 71.0523 188.472L59.4603 182.903Z" fill="#EFEFEF"/>
<path d="M665.416 149.07C665.416 149.07 672.882 149.15 679.143 144.678C685.403 140.207 690.036 132.125 690.036 132.125L679.56 127.096C679.56 127.096 682.264 138.09 665.416 149.07Z" fill="#8EC63F"/>
<path d="M664.271 143.458L664.037 149.787L669.117 153.57C669.696 154.002 669.531 154.91 668.836 155.108L662.741 156.839L660.714 162.84C660.484 163.524 659.57 163.647 659.166 163.049L655.635 157.79L649.302 157.714C648.579 157.707 648.179 156.872 648.626 156.306L652.539 151.324L650.652 145.276C650.436 144.585 651.106 143.948 651.783 144.2L657.73 146.378L662.9 142.713C663.487 142.299 664.3 142.734 664.271 143.458Z" fill="#8EC63F"/>
<path d="M355.55 18.9664C355.291 15.226 358.113 11.9824 361.853 11.7232C365.597 11.4604 368.841 14.2864 369.1 18.0268C369.359 21.7672 366.537 25.0108 362.793 25.2736C359.053 25.5328 355.809 22.7104 355.55 18.9664Z" fill="#F36523"/>
<path d="M367.066 38.1435C366.659 36.1743 366.414 34.0647 365.745 32.1675C365.165 30.5331 362.616 31.0335 362.746 32.7867C362.904 34.9323 363.574 37.1104 364.024 39.2164C364.208 40.066 365.334 40.4619 366.08 40.1991C366.994 39.8787 367.242 39.0003 367.066 38.1435Z" fill="#F36523"/>
<path d="M378.705 29.7304C376.455 28.4056 374.492 26.7604 372.415 25.1908C370.792 23.9632 369.042 26.0728 370.378 27.5308C372.293 29.626 374.809 31.2604 377.239 32.6932C378.01 33.1432 379.075 32.7004 379.453 31.9444C379.871 31.0948 379.475 30.1876 378.705 29.7304Z" fill="#F36523"/>
<path d="M374.443 17.5733C373.931 17.9837 373.831 18.5705 374.144 19.1393C374.907 20.5217 376.84 20.4533 378.212 20.4065C379.645 20.3597 381.074 20.0681 382.427 19.6037C384.429 18.9233 383.345 15.8165 381.337 16.5005C377.409 17.8433 375.922 16.3853 374.443 17.5733Z" fill="#F36523"/>
<path d="M372.279 4.36839C370.303 7.25919 368.686 8.23836 368.938 9.82956C369.086 10.7584 369.82 11.2048 370.72 10.9996C371.782 10.7584 372.362 9.63158 372.995 8.84318C373.607 8.08718 374.205 7.32756 374.752 6.51756C375.245 5.78676 375.314 4.83997 374.59 4.20997C373.982 3.68077 372.783 3.63399 372.279 4.36839Z" fill="#F36523"/>
<path d="M356.259 8.10881C353.411 5.94521 352.831 5.33322 351.712 5.45202C351.057 5.52042 350.319 6.15043 350.463 6.88843C350.729 8.25643 351.524 8.62721 354.145 10.5388C354.847 11.0536 355.812 11.0788 356.417 10.384C356.96 9.75762 356.957 8.63801 356.259 8.10881Z" fill="#F36523"/>
<path d="M344.815 18.0304C343.692 18.628 344.145 20.5684 345.358 20.7268C346.525 20.8816 346.975 20.6944 352.634 19.6612C353.505 19.4992 354.225 18.862 354.16 17.9044C354.103 17.0944 353.285 16.2196 352.403 16.378C346.528 17.44 345.942 17.4328 344.815 18.0304Z" fill="#F36523"/>
<path d="M353.678 27.286C350.578 30.2848 350.124 29.7556 348.9 31.5916C348.339 32.4304 349.264 33.766 350.236 33.5896C351.489 33.3592 351.824 33.1468 353.454 31.8544C354.401 31.1056 355.308 30.2992 356.18 29.4604C356.824 28.8412 356.651 27.6748 356.018 27.124C355.294 26.494 354.322 26.6596 353.678 27.286Z" fill="#F36523"/>
</svg>
