<svg width="295" height="83" viewBox="0 0 295 83" fill="none" xmlns="http://www.w3.org/2000/svg">
<path d="M15.5438 50.5L9.24383 48.7C4.00383 47.22 1.78383 43.8 2.58383 38.44C2.98383 35.64 4.24383 33.56 6.36383 32.2C8.52383 30.84 12.1038 30.16 17.1038 30.16C23.0238 30.16 28.0638 30.62 32.2238 31.54L31.2038 38.8H19.7438C17.5038 38.8 16.0838 38.84 15.4838 38.92C14.8838 38.96 14.5638 39.12 14.5238 39.4C14.4438 39.72 14.6038 40 15.0038 40.24C15.4438 40.44 16.2638 40.7 17.4638 41.02L24.0038 42.76C29.1638 44.16 31.4438 47.32 30.8438 52.24C30.4038 55.96 28.9638 58.46 26.5238 59.74C24.1238 61.02 20.4838 61.66 15.6038 61.66C10.2838 61.66 5.16383 61.22 0.243828 60.34L1.26383 53.08H11.3438C14.3838 53.08 16.3638 53.02 17.2838 52.9C18.2038 52.78 18.7038 52.52 18.7838 52.12C18.8238 51.84 18.6438 51.6 18.2438 51.4C17.8438 51.2 16.9438 50.9 15.5438 50.5ZM106.488 51.34L107.388 59.32C104.028 60.92 99.6279 61.72 94.1879 61.72C88.7079 61.72 84.6879 60.44 82.1279 57.88C79.6079 55.28 78.7479 51.14 79.5479 45.46C80.3079 39.98 81.9279 36.06 84.4079 33.7C86.9279 31.34 90.9479 30.16 96.4679 30.16C101.988 30.16 106.568 30.94 110.208 32.5L108.528 40.18H97.9679C96.2079 40.18 94.9679 40.58 94.2479 41.38C93.5279 42.18 93.0079 43.66 92.6879 45.82C92.3279 48.26 92.3879 49.86 92.8679 50.62C93.3879 51.38 94.5679 51.76 96.4079 51.76C100.608 51.76 103.968 51.62 106.488 51.34ZM122.396 17.26H127.256C129.936 17.26 131.136 18.58 130.856 21.22L130.436 24.28C130.156 26.6 128.776 27.76 126.296 27.76H121.376C118.736 27.76 117.556 26.44 117.836 23.8L118.256 20.74C118.496 18.42 119.876 17.26 122.396 17.26ZM125.216 61H112.676L116.816 31H129.356L125.216 61ZM151.899 30.16C158.019 30.16 162.299 31.42 164.739 33.94C167.219 36.46 168.039 40.66 167.199 46.54C166.399 52.18 164.639 56.12 161.919 58.36C159.239 60.6 154.919 61.72 148.959 61.72C142.879 61.72 138.579 60.48 136.059 58C133.539 55.48 132.699 51.34 133.539 45.58C134.339 39.86 136.079 35.86 138.759 33.58C141.479 31.3 145.859 30.16 151.899 30.16ZM151.659 38.68C150.059 38.68 148.939 39.18 148.299 40.18C147.699 41.14 147.159 43.26 146.679 46.54C146.279 49.3 146.239 51.1 146.559 51.94C146.919 52.78 147.879 53.2 149.439 53.2C150.959 53.2 151.999 52.74 152.559 51.82C153.159 50.86 153.699 48.78 154.179 45.58C154.619 42.74 154.679 40.88 154.359 40C154.039 39.12 153.139 38.68 151.659 38.68ZM189.653 19L185.153 50.32C184.993 51.08 185.073 51.6 185.393 51.88C185.713 52.12 186.413 52.24 187.493 52.24H189.893L190.613 60.4C188.893 61.36 186.033 61.84 182.033 61.84C178.673 61.84 176.113 61.06 174.353 59.5C172.633 57.94 171.933 55.84 172.253 53.2L177.113 19H189.653ZM217.13 31H230.63C229.95 35.92 228.43 41.46 226.07 47.62C223.71 53.78 221.75 58.08 220.19 60.52C214.39 69.6 206.61 73.88 196.85 73.36L196.07 66.58C196.59 66.38 197.37 66.1 198.41 65.74C199.49 65.42 200.29 65.16 200.81 64.96C201.37 64.76 202.05 64.48 202.85 64.12C203.65 63.76 204.37 63.32 205.01 62.8C205.65 62.28 206.27 61.68 206.87 61H202.13C201.17 61 200.33 60.7 199.61 60.1C198.93 59.5 198.53 58.74 198.41 57.82L194.69 31H208.49L208.97 52.48C208.97 53.12 209.29 53.44 209.93 53.44H211.37C213.89 47.84 215.81 40.36 217.13 31ZM260.454 25.96H255.654C254.454 25.96 253.594 26.2 253.074 26.68C252.554 27.16 252.194 28.04 251.994 29.32L251.754 31H258.774L257.754 38.56H250.614L247.014 62.92C246.054 69.28 242.254 72.46 235.614 72.46C233.614 72.46 230.514 72.16 226.314 71.56L228.234 64.06H231.174C232.414 64.06 233.314 63.82 233.874 63.34C234.434 62.86 234.814 61.98 235.014 60.7L238.194 38.56H233.334L234.234 31.3L239.334 31L239.874 27.1C240.834 20.74 244.634 17.56 251.274 17.56C255.714 17.56 259.414 17.86 262.374 18.46L260.454 25.96ZM289.906 51.4L290.746 59.08C286.946 60.84 282.206 61.72 276.526 61.72C273.166 61.72 270.366 61.38 268.126 60.7C265.886 60.02 264.166 58.98 262.966 57.58C261.766 56.18 260.966 54.54 260.566 52.66C260.206 50.74 260.166 48.44 260.446 45.76C260.766 42.6 261.386 39.98 262.306 37.9C263.226 35.82 264.486 34.24 266.086 33.16C267.726 32.04 269.526 31.26 271.486 30.82C273.486 30.38 275.906 30.16 278.746 30.16C284.746 30.16 288.866 31.08 291.106 32.92C293.346 34.76 294.186 37.56 293.626 41.32C293.266 43.92 292.106 45.74 290.146 46.78C288.226 47.78 285.126 48.44 280.846 48.76L273.346 49.3C273.386 50.42 273.706 51.16 274.306 51.52C274.946 51.88 276.046 52.06 277.606 52.06C281.966 52.06 286.066 51.84 289.906 51.4ZM274.126 43.18L277.546 42.82C278.986 42.7 279.986 42.48 280.546 42.16C281.146 41.8 281.506 41.1 281.626 40.06C281.706 39.38 281.546 38.9 281.146 38.62C280.786 38.34 280.026 38.22 278.866 38.26C277.386 38.3 276.326 38.64 275.686 39.28C275.046 39.92 274.526 41.22 274.126 43.18Z" fill="#F36523"/>
<path fill-rule="evenodd" clip-rule="evenodd" d="M64.6182 36.4793C64.853 35.7588 64.9738 34.9876 64.9599 34.1874C64.9567 34.0037 64.9464 33.8217 64.9294 33.6418C69.3618 36.4755 72.337 41.4047 72.4356 47.0589C72.4596 48.4306 72.3129 49.7656 72.015 51.0436C71.4671 50.363 70.7818 49.7742 69.9718 49.3225C69.9179 49.2924 69.8637 49.2631 69.8093 49.2346C69.9051 48.5388 69.9487 47.8267 69.936 47.1026C69.8604 42.7723 67.7911 38.9447 64.6182 36.4793ZM56.4717 63.59C59.0522 63.545 61.4816 62.9008 63.6298 61.7925C63.469 61.7181 63.3097 61.6371 63.1524 61.5493C62.4508 61.158 61.8427 60.6639 61.3365 60.0963C59.818 60.7097 58.1634 61.0601 56.4281 61.0904C53.1586 61.1475 50.1357 60.0586 47.7427 58.1938C47.687 58.2291 47.6307 58.2636 47.5737 58.2975C46.7813 58.7685 45.9336 59.0651 45.0753 59.1986C48.0504 61.9878 52.0721 63.6668 56.4717 63.59ZM39.9562 46.5639C40.2829 39.611 44.994 33.7703 51.4234 31.8024C51.1105 32.6175 50.9458 33.5052 50.962 34.4318C50.9631 34.4941 50.965 34.5562 50.9677 34.6181C46.5199 36.4442 43.2534 40.5306 42.5704 45.4253C41.8316 45.5791 41.1052 45.8559 40.4202 46.2631C40.2603 46.3581 40.1056 46.4585 39.9562 46.5639Z" fill="#0B8ECB"/>
<path d="M60.9253 32.2575C60.9735 35.0185 58.7744 37.2958 56.0134 37.344C53.2524 37.3922 50.9751 35.1931 50.9269 32.4321C50.8787 29.6711 53.0778 27.3937 55.8388 27.3456C58.5998 27.2974 60.8771 29.4965 60.9253 32.2575Z" stroke="#0B8ECB" stroke-width="2.5"/>
<path d="M66.8475 59.0301C64.4358 57.685 63.5712 54.6395 64.9162 52.2279C66.2613 49.8162 69.3068 48.9516 71.7185 50.2966C74.1302 51.6417 74.9948 54.6872 73.6497 57.0989C72.3046 59.5106 69.2591 60.3752 66.8475 59.0301Z" stroke="#0B8ECB" stroke-width="2.5"/>
<path d="M40.7445 50.7234C43.1183 49.3124 46.1864 50.0929 47.5974 52.4666C49.0084 54.8403 48.2279 57.9085 45.8542 59.3194C43.4804 60.7304 40.4123 59.95 39.0013 57.5762C37.5904 55.2025 38.3708 52.1344 40.7445 50.7234Z" stroke="#0B8ECB" stroke-width="2.5"/>
</svg>
