<svg width="41" height="38" viewBox="0 0 41 38" fill="none" xmlns="http://www.w3.org/2000/svg">
<path fill-rule="evenodd" clip-rule="evenodd" d="M28.6182 10.4793C28.853 9.75886 28.9739 8.98768 28.9599 8.18747C28.9567 8.00372 28.9464 7.82175 28.9294 7.64181C33.3618 10.4755 36.337 15.4047 36.4357 21.059C36.4596 22.4307 36.3129 23.7657 36.015 25.0436C35.4672 24.363 34.7819 23.7743 33.9719 23.3225C33.9179 23.2924 33.8638 23.2631 33.8094 23.2346C33.9051 22.5388 33.9487 21.8268 33.9361 21.1026C33.8605 16.7724 31.7911 12.9447 28.6182 10.4793ZM20.4718 37.5901C23.0522 37.545 25.4817 36.9009 27.6299 35.7925C27.469 35.7181 27.3098 35.6371 27.1525 35.5494C26.4509 35.158 25.8428 34.6639 25.3365 34.0963C23.818 34.7097 22.1634 35.0602 20.4281 35.0905C17.1586 35.1475 14.1358 34.0586 11.7428 32.1939C11.6871 32.2291 11.6307 32.2637 11.5737 32.2976C10.7813 32.7686 9.93363 33.0652 9.07531 33.1987C12.0505 35.9879 16.0722 37.6669 20.4718 37.5901ZM3.95624 20.5639C4.28296 13.6111 8.994 7.77033 15.4234 5.80242C15.1105 6.61753 14.9459 7.50521 14.962 8.43181C14.9631 8.49412 14.965 8.55624 14.9677 8.61814C10.52 10.4442 7.25346 14.5306 6.57047 19.4253C5.83164 19.5791 5.10529 19.8559 4.42025 20.2631C4.26039 20.3581 4.10569 20.4585 3.95624 20.5639Z" fill="#E62E44"/>
<path d="M24.9253 6.25758C24.9735 9.01858 22.7744 11.2959 20.0134 11.3441C17.2524 11.3923 14.9751 9.1931 14.9269 6.4321C14.8787 3.6711 17.0778 1.39379 19.8388 1.3456C22.5998 1.29741 24.8771 3.49657 24.9253 6.25758Z" stroke="#E62E44" stroke-width="2.5"/>
<path d="M30.8475 33.0301C28.4358 31.685 27.5712 28.6396 28.9162 26.2279C30.2613 23.8162 33.3068 22.9516 35.7185 24.2967C38.1302 25.6418 38.9948 28.6872 37.6497 31.0989C36.3046 33.5106 33.2591 34.3752 30.8475 33.0301Z" stroke="#E62E44" stroke-width="2.5"/>
<path d="M4.74455 24.7234C7.11828 23.3124 10.1864 24.0929 11.5974 26.4666C13.0084 28.8404 12.2279 31.9085 9.85417 33.3195C7.48044 34.7304 4.41232 33.95 3.00134 31.5763C1.59036 29.2025 2.37082 26.1344 4.74455 24.7234Z" stroke="#E62E44" stroke-width="2.5"/>
</svg>
