<svg width="234" height="234" viewBox="0 0 234 234" fill="none" xmlns="http://www.w3.org/2000/svg">
<path d="M102 8.66026C111.282 3.30127 122.718 3.30127 132 8.66025L203.325 49.8397C212.607 55.1987 218.325 65.1025 218.325 75.8205V158.179C218.325 168.897 212.607 178.801 203.325 184.16L132 225.34C122.718 230.699 111.282 230.699 102 225.34L30.675 184.16C21.393 178.801 15.675 168.897 15.675 158.179V75.8205C15.675 65.1025 21.393 55.1987 30.675 49.8397L102 8.66026Z" fill="#F7C667"/>
<path d="M142.086 100.8H103.686C102.033 100.8 100.539 101.467 99.2059 102.8C97.9259 104.08 97.2859 105.547 97.2859 107.2C97.2859 108.853 97.9259 110.347 99.2059 111.68C100.539 112.96 102.033 113.6 103.686 113.6H129.286C134.673 113.6 139.206 115.467 142.886 119.2C146.619 122.88 148.486 127.413 148.486 132.8C148.486 138.08 146.593 142.613 142.806 146.4C139.073 150.133 134.566 152 129.286 152H90.8859C88.8593 152 87.2859 151.36 86.1659 150.08C85.0459 148.8 84.4859 147.307 84.4859 145.6C84.4859 143.84 85.0459 142.347 86.1659 141.12C87.2859 139.84 88.8593 139.2 90.8859 139.2H129.286C131.046 139.2 132.539 138.587 133.766 137.36C135.046 136.08 135.686 134.56 135.686 132.8C135.686 130.933 135.073 129.413 133.846 128.24C132.673 127.013 131.153 126.4 129.286 126.4H103.686C98.4593 126.4 93.9526 124.507 90.1659 120.72C86.3793 116.933 84.4859 112.427 84.4859 107.2C84.4859 101.973 86.3793 97.4667 90.1659 93.68C93.9526 89.8933 98.4593 88 103.686 88H142.086C144.113 88 145.686 88.64 146.806 89.92C147.926 91.2 148.486 92.6933 148.486 94.4C148.486 96.16 147.953 97.6267 146.886 98.8C145.713 100.133 144.113 100.8 142.086 100.8Z" fill="#F46B2C"/>
</svg>
