<svg width="722" height="234" viewBox="0 0 722 234" fill="none" xmlns="http://www.w3.org/2000/svg">
<path d="M102 8.66026C111.282 3.30127 122.718 3.30127 132 8.66025L203.325 49.8397C212.607 55.1987 218.325 65.1025 218.325 75.8205V158.179C218.325 168.897 212.607 178.801 203.325 184.16L132 225.34C122.718 230.699 111.282 230.699 102 225.34L30.675 184.16C21.393 178.801 15.675 168.897 15.675 158.179V75.8205C15.675 65.1025 21.393 55.1987 30.675 49.8397L102 8.66026Z" fill="#F7C667"/>
<path d="M142.086 100.8H103.686C102.033 100.8 100.539 101.467 99.2059 102.8C97.9259 104.08 97.2859 105.547 97.2859 107.2C97.2859 108.853 97.9259 110.347 99.2059 111.68C100.539 112.96 102.033 113.6 103.686 113.6H129.286C134.673 113.6 139.206 115.467 142.886 119.2C146.619 122.88 148.486 127.413 148.486 132.8C148.486 138.08 146.593 142.613 142.806 146.4C139.073 150.133 134.566 152 129.286 152H90.8859C88.8593 152 87.2859 151.36 86.1659 150.08C85.0459 148.8 84.4859 147.307 84.4859 145.6C84.4859 143.84 85.0459 142.347 86.1659 141.12C87.2859 139.84 88.8593 139.2 90.8859 139.2H129.286C131.046 139.2 132.539 138.587 133.766 137.36C135.046 136.08 135.686 134.56 135.686 132.8C135.686 130.933 135.073 129.413 133.846 128.24C132.673 127.013 131.153 126.4 129.286 126.4H103.686C98.4593 126.4 93.9526 124.507 90.1659 120.72C86.3793 116.933 84.4859 112.427 84.4859 107.2C84.4859 101.973 86.3793 97.4667 90.1659 93.68C93.9526 89.8933 98.4593 88 103.686 88H142.086C144.113 88 145.686 88.64 146.806 89.92C147.926 91.2 148.486 92.6933 148.486 94.4C148.486 96.16 147.953 97.6267 146.886 98.8C145.713 100.133 144.113 100.8 142.086 100.8Z" fill="#F46B2C"/>
<path d="M276.709 144.65C272.776 144.65 268.876 143.983 265.009 142.65C261.143 141.317 258.009 139.317 255.609 136.65C254.876 135.85 254.576 134.95 254.709 133.95C254.843 132.95 255.343 132.083 256.209 131.35C257.143 130.683 258.109 130.417 259.109 130.55C260.109 130.683 260.943 131.117 261.609 131.85C263.209 133.717 265.309 135.15 267.909 136.15C270.576 137.15 273.509 137.65 276.709 137.65C281.643 137.65 285.209 136.817 287.409 135.15C289.609 133.417 290.743 131.35 290.809 128.95C290.809 126.55 289.676 124.583 287.409 123.05C285.143 121.45 281.409 120.217 276.209 119.35C269.476 118.283 264.543 116.417 261.409 113.75C258.276 111.083 256.709 107.917 256.709 104.25C256.709 100.85 257.609 98.0167 259.409 95.75C261.209 93.4834 263.609 91.7834 266.609 90.65C269.609 89.5167 272.909 88.95 276.509 88.95C280.976 88.95 284.809 89.7167 288.009 91.25C291.276 92.7834 293.909 94.85 295.909 97.4501C296.576 98.3167 296.843 99.2167 296.709 100.15C296.576 101.083 296.043 101.85 295.109 102.45C294.309 102.917 293.376 103.083 292.309 102.95C291.309 102.75 290.443 102.25 289.709 101.45C288.043 99.5167 286.109 98.1167 283.909 97.25C281.709 96.3167 279.176 95.85 276.309 95.85C272.643 95.85 269.709 96.6167 267.509 98.1501C265.309 99.6167 264.209 101.483 264.209 103.75C264.209 105.283 264.609 106.617 265.409 107.75C266.276 108.883 267.709 109.883 269.709 110.75C271.776 111.617 274.643 112.35 278.309 112.95C283.309 113.75 287.243 114.95 290.109 116.55C293.043 118.083 295.109 119.917 296.309 122.05C297.576 124.117 298.209 126.383 298.209 128.85C298.209 131.983 297.276 134.75 295.409 137.15C293.609 139.483 291.076 141.317 287.809 142.65C284.609 143.983 280.909 144.65 276.709 144.65Z" fill="#F46B2C"/>
<path d="M336.415 144.65C331.082 144.65 326.315 143.45 322.115 141.05C317.915 138.65 314.615 135.35 312.215 131.15C309.815 126.95 308.615 122.183 308.615 116.85C308.615 111.45 309.815 106.65 312.215 102.45C314.615 98.25 317.915 94.95 322.115 92.55C326.315 90.15 331.082 88.95 336.415 88.95C341.749 88.95 346.482 90.15 350.615 92.55C354.815 94.95 358.115 98.25 360.515 102.45C362.915 106.65 364.149 111.45 364.215 116.85C364.215 122.183 362.982 126.95 360.515 131.15C358.115 135.35 354.815 138.65 350.615 141.05C346.482 143.45 341.749 144.65 336.415 144.65ZM336.415 137.65C340.282 137.65 343.749 136.75 346.815 134.95C349.882 133.15 352.282 130.683 354.015 127.55C355.749 124.417 356.615 120.85 356.615 116.85C356.615 112.85 355.749 109.283 354.015 106.15C352.282 102.95 349.882 100.45 346.815 98.6501C343.749 96.8501 340.282 95.95 336.415 95.95C332.549 95.95 329.082 96.8501 326.015 98.6501C322.949 100.45 320.515 102.95 318.715 106.15C316.982 109.283 316.115 112.85 316.115 116.85C316.115 120.85 316.982 124.417 318.715 127.55C320.515 130.683 322.949 133.15 326.015 134.95C329.082 136.75 332.549 137.65 336.415 137.65Z" fill="#F46B2C"/>
<path d="M403.591 144.65C398.325 144.65 393.625 143.45 389.491 141.05C385.425 138.583 382.191 135.25 379.791 131.05C377.458 126.85 376.291 122.117 376.291 116.85C376.291 111.517 377.425 106.75 379.691 102.55C381.958 98.35 385.058 95.05 388.991 92.65C392.925 90.1834 397.458 88.95 402.591 88.95C406.658 88.95 410.391 89.75 413.791 91.3501C417.258 92.9501 420.291 95.3501 422.891 98.55C423.625 99.35 423.891 100.217 423.691 101.15C423.491 102.017 422.925 102.783 421.991 103.45C421.258 103.983 420.425 104.183 419.491 104.05C418.625 103.85 417.858 103.35 417.191 102.55C413.325 98.15 408.458 95.95 402.591 95.95C398.858 95.95 395.558 96.8501 392.691 98.6501C389.891 100.45 387.691 102.917 386.091 106.05C384.558 109.183 383.791 112.783 383.791 116.85C383.791 120.85 384.625 124.417 386.291 127.55C387.958 130.683 390.291 133.15 393.291 134.95C396.291 136.75 399.725 137.65 403.591 137.65C406.191 137.65 408.558 137.317 410.691 136.65C412.891 135.917 414.825 134.817 416.491 133.35C417.291 132.683 418.125 132.317 418.991 132.25C419.858 132.183 420.658 132.45 421.391 133.05C422.191 133.783 422.625 134.617 422.691 135.55C422.825 136.483 422.525 137.283 421.791 137.95C416.925 142.417 410.858 144.65 403.591 144.65Z" fill="#F46B2C"/>
<path d="M444.164 144.15C442.964 144.15 441.997 143.817 441.264 143.15C440.597 142.417 440.264 141.45 440.264 140.25V93.35C440.264 92.15 440.597 91.2167 441.264 90.55C441.997 89.8167 442.964 89.45 444.164 89.45C445.297 89.45 446.197 89.8167 446.864 90.55C447.597 91.2167 447.964 92.15 447.964 93.35V140.25C447.964 141.45 447.597 142.417 446.864 143.15C446.197 143.817 445.297 144.15 444.164 144.15Z" fill="#F46B2C"/>
<path d="M492.47 144.65C487.137 144.65 482.37 143.45 478.17 141.05C473.97 138.65 470.67 135.35 468.27 131.15C465.87 126.95 464.67 122.183 464.67 116.85C464.67 111.45 465.87 106.65 468.27 102.45C470.67 98.25 473.97 94.95 478.17 92.55C482.37 90.15 487.137 88.95 492.47 88.95C497.804 88.95 502.537 90.15 506.67 92.55C510.87 94.95 514.17 98.25 516.57 102.45C518.97 106.65 520.204 111.45 520.27 116.85C520.27 122.183 519.037 126.95 516.57 131.15C514.17 135.35 510.87 138.65 506.67 141.05C502.537 143.45 497.804 144.65 492.47 144.65ZM492.47 137.65C496.337 137.65 499.804 136.75 502.87 134.95C505.937 133.15 508.337 130.683 510.07 127.55C511.804 124.417 512.67 120.85 512.67 116.85C512.67 112.85 511.804 109.283 510.07 106.15C508.337 102.95 505.937 100.45 502.87 98.6501C499.804 96.8501 496.337 95.95 492.47 95.95C488.604 95.95 485.137 96.8501 482.07 98.6501C479.004 100.45 476.57 102.95 474.77 106.15C473.037 109.283 472.17 112.85 472.17 116.85C472.17 120.85 473.037 124.417 474.77 127.55C476.57 130.683 479.004 133.15 482.07 134.95C485.137 136.75 488.604 137.65 492.47 137.65Z" fill="#F46B2C"/>
<path d="M547.046 144.15C544.379 144.15 541.979 143.417 539.846 141.95C537.779 140.483 536.146 138.45 534.946 135.85C533.813 133.25 533.246 130.25 533.246 126.85V69.85C533.246 68.7167 533.579 67.8167 534.246 67.15C534.979 66.4167 535.913 66.05 537.046 66.05C538.179 66.05 539.079 66.4167 539.746 67.15C540.479 67.8167 540.846 68.7167 540.846 69.85V126.85C540.846 129.717 541.413 132.05 542.546 133.85C543.746 135.65 545.246 136.55 547.046 136.55H549.546C550.546 136.55 551.346 136.917 551.946 137.65C552.546 138.317 552.846 139.217 552.846 140.35C552.846 141.483 552.413 142.417 551.546 143.15C550.746 143.817 549.679 144.15 548.346 144.15H547.046Z" fill="#F46B2C"/>
<path d="M572.869 167.95C572.335 167.95 571.735 167.817 571.069 167.55C568.802 166.55 568.169 164.95 569.169 162.75L601.469 91.55C602.469 89.4167 604.069 88.8167 606.269 89.75C608.535 90.6834 609.169 92.25 608.169 94.4501L575.769 165.65C575.102 167.183 574.135 167.95 572.869 167.95ZM583.969 142.45C582.969 142.917 582.035 143.017 581.169 142.75C580.302 142.417 579.602 141.75 579.069 140.75L556.769 94.55C556.302 93.55 556.235 92.6167 556.569 91.75C556.902 90.8834 557.569 90.2167 558.569 89.75C559.569 89.2834 560.502 89.2167 561.369 89.5501C562.235 89.8167 562.902 90.45 563.369 91.4501L585.269 137.65C585.802 138.65 585.969 139.583 585.769 140.45C585.569 141.317 584.969 141.983 583.969 142.45Z" fill="#F46B2C"/>
<path d="M625.054 144.15C624.054 144.15 623.187 143.817 622.454 143.15C621.72 142.417 621.354 141.45 621.354 140.25V89.5501C621.354 84.8834 622.154 80.7834 623.754 77.25C625.354 73.7167 627.72 70.9834 630.854 69.05C633.987 67.05 637.82 66.05 642.354 66.05C643.487 66.05 644.42 66.3834 645.154 67.05C645.887 67.7167 646.254 68.55 646.254 69.55C646.254 70.55 645.887 71.3834 645.154 72.05C644.42 72.7167 643.487 73.05 642.354 73.05C639.354 73.05 636.854 73.75 634.854 75.15C632.92 76.4834 631.454 78.3834 630.454 80.85C629.52 83.25 629.054 86.0167 629.054 89.15V140.25C629.054 141.45 628.687 142.417 627.954 143.15C627.287 143.817 626.32 144.15 625.054 144.15ZM621.354 98.1501V91.4501H641.054C642.12 91.4501 642.954 91.7834 643.554 92.45C644.22 93.05 644.554 93.85 644.554 94.85C644.554 95.7834 644.22 96.5834 643.554 97.25C642.954 97.85 642.12 98.1501 641.054 98.1501H621.354Z" fill="#F46B2C"/>
<path d="M677.722 144.65C672.322 144.65 667.522 143.483 663.322 141.15C659.188 138.75 655.922 135.45 653.522 131.25C651.188 127.05 650.022 122.25 650.022 116.85C650.022 111.383 651.122 106.583 653.322 102.45C655.588 98.25 658.688 94.95 662.622 92.55C666.555 90.15 671.088 88.95 676.222 88.95C681.288 88.95 685.688 90.1167 689.422 92.45C693.222 94.7167 696.155 97.8834 698.222 101.95C700.288 106.017 701.322 110.65 701.322 115.85C701.322 116.917 700.988 117.783 700.322 118.45C699.655 119.05 698.788 119.35 697.722 119.35H655.222V112.95H698.522L694.222 116.05C694.288 112.183 693.588 108.717 692.122 105.65C690.655 102.583 688.555 100.183 685.822 98.4501C683.155 96.7167 679.955 95.85 676.222 95.85C672.422 95.85 669.088 96.7501 666.222 98.55C663.355 100.35 661.122 102.85 659.522 106.05C657.988 109.183 657.222 112.783 657.222 116.85C657.222 120.917 658.088 124.517 659.822 127.65C661.622 130.783 664.055 133.25 667.122 135.05C670.188 136.85 673.722 137.75 677.722 137.75C680.122 137.75 682.522 137.35 684.922 136.55C687.388 135.683 689.355 134.617 690.822 133.35C691.555 132.75 692.388 132.45 693.322 132.45C694.255 132.383 695.055 132.617 695.722 133.15C696.588 133.95 697.022 134.817 697.022 135.75C697.088 136.683 696.722 137.483 695.922 138.15C693.722 140.017 690.922 141.583 687.522 142.85C684.122 144.05 680.855 144.65 677.722 144.65Z" fill="#F46B2C"/>
<path d="M276.709 144.65C272.776 144.65 268.876 143.983 265.009 142.65C261.143 141.317 258.009 139.317 255.609 136.65C254.876 135.85 254.576 134.95 254.709 133.95C254.843 132.95 255.343 132.083 256.209 131.35C257.143 130.683 258.109 130.417 259.109 130.55C260.109 130.683 260.943 131.117 261.609 131.85C263.209 133.717 265.309 135.15 267.909 136.15C270.576 137.15 273.509 137.65 276.709 137.65C281.643 137.65 285.209 136.817 287.409 135.15C289.609 133.417 290.743 131.35 290.809 128.95C290.809 126.55 289.676 124.583 287.409 123.05C285.143 121.45 281.409 120.217 276.209 119.35C269.476 118.283 264.543 116.417 261.409 113.75C258.276 111.083 256.709 107.917 256.709 104.25C256.709 100.85 257.609 98.0167 259.409 95.75C261.209 93.4834 263.609 91.7834 266.609 90.65C269.609 89.5167 272.909 88.95 276.509 88.95C280.976 88.95 284.809 89.7167 288.009 91.25C291.276 92.7834 293.909 94.85 295.909 97.4501C296.576 98.3167 296.843 99.2167 296.709 100.15C296.576 101.083 296.043 101.85 295.109 102.45C294.309 102.917 293.376 103.083 292.309 102.95C291.309 102.75 290.443 102.25 289.709 101.45C288.043 99.5167 286.109 98.1167 283.909 97.25C281.709 96.3167 279.176 95.85 276.309 95.85C272.643 95.85 269.709 96.6167 267.509 98.1501C265.309 99.6167 264.209 101.483 264.209 103.75C264.209 105.283 264.609 106.617 265.409 107.75C266.276 108.883 267.709 109.883 269.709 110.75C271.776 111.617 274.643 112.35 278.309 112.95C283.309 113.75 287.243 114.95 290.109 116.55C293.043 118.083 295.109 119.917 296.309 122.05C297.576 124.117 298.209 126.383 298.209 128.85C298.209 131.983 297.276 134.75 295.409 137.15C293.609 139.483 291.076 141.317 287.809 142.65C284.609 143.983 280.909 144.65 276.709 144.65Z" stroke="#F46B2C" stroke-width="2"/>
<path d="M336.415 144.65C331.082 144.65 326.315 143.45 322.115 141.05C317.915 138.65 314.615 135.35 312.215 131.15C309.815 126.95 308.615 122.183 308.615 116.85C308.615 111.45 309.815 106.65 312.215 102.45C314.615 98.25 317.915 94.95 322.115 92.55C326.315 90.15 331.082 88.95 336.415 88.95C341.749 88.95 346.482 90.15 350.615 92.55C354.815 94.95 358.115 98.25 360.515 102.45C362.915 106.65 364.149 111.45 364.215 116.85C364.215 122.183 362.982 126.95 360.515 131.15C358.115 135.35 354.815 138.65 350.615 141.05C346.482 143.45 341.749 144.65 336.415 144.65ZM336.415 137.65C340.282 137.65 343.749 136.75 346.815 134.95C349.882 133.15 352.282 130.683 354.015 127.55C355.749 124.417 356.615 120.85 356.615 116.85C356.615 112.85 355.749 109.283 354.015 106.15C352.282 102.95 349.882 100.45 346.815 98.6501C343.749 96.8501 340.282 95.95 336.415 95.95C332.549 95.95 329.082 96.8501 326.015 98.6501C322.949 100.45 320.515 102.95 318.715 106.15C316.982 109.283 316.115 112.85 316.115 116.85C316.115 120.85 316.982 124.417 318.715 127.55C320.515 130.683 322.949 133.15 326.015 134.95C329.082 136.75 332.549 137.65 336.415 137.65Z" stroke="#F46B2C" stroke-width="2"/>
<path d="M403.591 144.65C398.325 144.65 393.625 143.45 389.491 141.05C385.425 138.583 382.191 135.25 379.791 131.05C377.458 126.85 376.291 122.117 376.291 116.85C376.291 111.517 377.425 106.75 379.691 102.55C381.958 98.35 385.058 95.05 388.991 92.65C392.925 90.1834 397.458 88.95 402.591 88.95C406.658 88.95 410.391 89.75 413.791 91.3501C417.258 92.9501 420.291 95.3501 422.891 98.55C423.625 99.35 423.891 100.217 423.691 101.15C423.491 102.017 422.925 102.783 421.991 103.45C421.258 103.983 420.425 104.183 419.491 104.05C418.625 103.85 417.858 103.35 417.191 102.55C413.325 98.15 408.458 95.95 402.591 95.95C398.858 95.95 395.558 96.8501 392.691 98.6501C389.891 100.45 387.691 102.917 386.091 106.05C384.558 109.183 383.791 112.783 383.791 116.85C383.791 120.85 384.625 124.417 386.291 127.55C387.958 130.683 390.291 133.15 393.291 134.95C396.291 136.75 399.725 137.65 403.591 137.65C406.191 137.65 408.558 137.317 410.691 136.65C412.891 135.917 414.825 134.817 416.491 133.35C417.291 132.683 418.125 132.317 418.991 132.25C419.858 132.183 420.658 132.45 421.391 133.05C422.191 133.783 422.625 134.617 422.691 135.55C422.825 136.483 422.525 137.283 421.791 137.95C416.925 142.417 410.858 144.65 403.591 144.65Z" stroke="#F46B2C" stroke-width="2"/>
<path d="M444.164 144.15C442.964 144.15 441.997 143.817 441.264 143.15C440.597 142.417 440.264 141.45 440.264 140.25V93.35C440.264 92.15 440.597 91.2167 441.264 90.55C441.997 89.8167 442.964 89.45 444.164 89.45C445.297 89.45 446.197 89.8167 446.864 90.55C447.597 91.2167 447.964 92.15 447.964 93.35V140.25C447.964 141.45 447.597 142.417 446.864 143.15C446.197 143.817 445.297 144.15 444.164 144.15Z" stroke="#F46B2C" stroke-width="2"/>
<path d="M492.47 144.65C487.137 144.65 482.37 143.45 478.17 141.05C473.97 138.65 470.67 135.35 468.27 131.15C465.87 126.95 464.67 122.183 464.67 116.85C464.67 111.45 465.87 106.65 468.27 102.45C470.67 98.25 473.97 94.95 478.17 92.55C482.37 90.15 487.137 88.95 492.47 88.95C497.804 88.95 502.537 90.15 506.67 92.55C510.87 94.95 514.17 98.25 516.57 102.45C518.97 106.65 520.204 111.45 520.27 116.85C520.27 122.183 519.037 126.95 516.57 131.15C514.17 135.35 510.87 138.65 506.67 141.05C502.537 143.45 497.804 144.65 492.47 144.65ZM492.47 137.65C496.337 137.65 499.804 136.75 502.87 134.95C505.937 133.15 508.337 130.683 510.07 127.55C511.804 124.417 512.67 120.85 512.67 116.85C512.67 112.85 511.804 109.283 510.07 106.15C508.337 102.95 505.937 100.45 502.87 98.6501C499.804 96.8501 496.337 95.95 492.47 95.95C488.604 95.95 485.137 96.8501 482.07 98.6501C479.004 100.45 476.57 102.95 474.77 106.15C473.037 109.283 472.17 112.85 472.17 116.85C472.17 120.85 473.037 124.417 474.77 127.55C476.57 130.683 479.004 133.15 482.07 134.95C485.137 136.75 488.604 137.65 492.47 137.65Z" stroke="#F46B2C" stroke-width="2"/>
<path d="M547.046 144.15C544.379 144.15 541.979 143.417 539.846 141.95C537.779 140.483 536.146 138.45 534.946 135.85C533.813 133.25 533.246 130.25 533.246 126.85V69.85C533.246 68.7167 533.579 67.8167 534.246 67.15C534.979 66.4167 535.913 66.05 537.046 66.05C538.179 66.05 539.079 66.4167 539.746 67.15C540.479 67.8167 540.846 68.7167 540.846 69.85V126.85C540.846 129.717 541.413 132.05 542.546 133.85C543.746 135.65 545.246 136.55 547.046 136.55H549.546C550.546 136.55 551.346 136.917 551.946 137.65C552.546 138.317 552.846 139.217 552.846 140.35C552.846 141.483 552.413 142.417 551.546 143.15C550.746 143.817 549.679 144.15 548.346 144.15H547.046Z" stroke="#F46B2C" stroke-width="2"/>
<path d="M572.869 167.95C572.335 167.95 571.735 167.817 571.069 167.55C568.802 166.55 568.169 164.95 569.169 162.75L601.469 91.55C602.469 89.4167 604.069 88.8167 606.269 89.75C608.535 90.6834 609.169 92.25 608.169 94.4501L575.769 165.65C575.102 167.183 574.135 167.95 572.869 167.95ZM583.969 142.45C582.969 142.917 582.035 143.017 581.169 142.75C580.302 142.417 579.602 141.75 579.069 140.75L556.769 94.55C556.302 93.55 556.235 92.6167 556.569 91.75C556.902 90.8834 557.569 90.2167 558.569 89.75C559.569 89.2834 560.502 89.2167 561.369 89.5501C562.235 89.8167 562.902 90.45 563.369 91.4501L585.269 137.65C585.802 138.65 585.969 139.583 585.769 140.45C585.569 141.317 584.969 141.983 583.969 142.45Z" stroke="#F46B2C" stroke-width="2"/>
<path d="M625.054 144.15C624.054 144.15 623.187 143.817 622.454 143.15C621.72 142.417 621.354 141.45 621.354 140.25V89.5501C621.354 84.8834 622.154 80.7834 623.754 77.25C625.354 73.7167 627.72 70.9834 630.854 69.05C633.987 67.05 637.82 66.05 642.354 66.05C643.487 66.05 644.42 66.3834 645.154 67.05C645.887 67.7167 646.254 68.55 646.254 69.55C646.254 70.55 645.887 71.3834 645.154 72.05C644.42 72.7167 643.487 73.05 642.354 73.05C639.354 73.05 636.854 73.75 634.854 75.15C632.92 76.4834 631.454 78.3834 630.454 80.85C629.52 83.25 629.054 86.0167 629.054 89.15V140.25C629.054 141.45 628.687 142.417 627.954 143.15C627.287 143.817 626.32 144.15 625.054 144.15ZM621.354 98.1501V91.4501H641.054C642.12 91.4501 642.954 91.7834 643.554 92.45C644.22 93.05 644.554 93.85 644.554 94.85C644.554 95.7834 644.22 96.5834 643.554 97.25C642.954 97.85 642.12 98.1501 641.054 98.1501H621.354Z" stroke="#F46B2C" stroke-width="2"/>
<path d="M677.722 144.65C672.322 144.65 667.522 143.483 663.322 141.15C659.188 138.75 655.922 135.45 653.522 131.25C651.188 127.05 650.022 122.25 650.022 116.85C650.022 111.383 651.122 106.583 653.322 102.45C655.588 98.25 658.688 94.95 662.622 92.55C666.555 90.15 671.088 88.95 676.222 88.95C681.288 88.95 685.688 90.1167 689.422 92.45C693.222 94.7167 696.155 97.8834 698.222 101.95C700.288 106.017 701.322 110.65 701.322 115.85C701.322 116.917 700.988 117.783 700.322 118.45C699.655 119.05 698.788 119.35 697.722 119.35H655.222V112.95H698.522L694.222 116.05C694.288 112.183 693.588 108.717 692.122 105.65C690.655 102.583 688.555 100.183 685.822 98.4501C683.155 96.7167 679.955 95.85 676.222 95.85C672.422 95.85 669.088 96.7501 666.222 98.55C663.355 100.35 661.122 102.85 659.522 106.05C657.988 109.183 657.222 112.783 657.222 116.85C657.222 120.917 658.088 124.517 659.822 127.65C661.622 130.783 664.055 133.25 667.122 135.05C670.188 136.85 673.722 137.75 677.722 137.75C680.122 137.75 682.522 137.35 684.922 136.55C687.388 135.683 689.355 134.617 690.822 133.35C691.555 132.75 692.388 132.45 693.322 132.45C694.255 132.383 695.055 132.617 695.722 133.15C696.588 133.95 697.022 134.817 697.022 135.75C697.088 136.683 696.722 137.483 695.922 138.15C693.722 140.017 690.922 141.583 687.522 142.85C684.122 144.05 680.855 144.65 677.722 144.65Z" stroke="#F46B2C" stroke-width="2"/>
</svg>
