<svg width="41" height="38" viewBox="0 0 41 38" fill="none" xmlns="http://www.w3.org/2000/svg">
<path fill-rule="evenodd" clip-rule="evenodd" d="M28.6182 10.4793C28.853 9.75882 28.9738 8.98763 28.9599 8.18743C28.9567 8.00368 28.9464 7.82171 28.9294 7.64177C33.3618 10.4755 36.337 15.4047 36.4356 21.0589C36.4596 22.4306 36.3129 23.7656 36.015 25.0436C35.4671 24.363 34.7818 23.7742 33.9718 23.3225C33.9179 23.2924 33.8637 23.2631 33.8093 23.2346C33.9051 22.5388 33.9487 21.8267 33.936 21.1026C33.8604 16.7723 31.7911 12.9447 28.6182 10.4793ZM20.4717 37.59C23.0522 37.545 25.4816 36.9008 27.6298 35.7925C27.469 35.7181 27.3097 35.6371 27.1524 35.5493C26.4508 35.158 25.8427 34.6639 25.3365 34.0963C23.818 34.7097 22.1634 35.0601 20.4281 35.0904C17.1586 35.1475 14.1357 34.0586 11.7427 32.1938C11.687 32.2291 11.6307 32.2636 11.5737 32.2975C10.7813 32.7685 9.93359 33.0651 9.07527 33.1986C12.0504 35.9878 16.0721 37.6668 20.4717 37.59ZM3.9562 20.5639C4.28291 13.611 8.99396 7.77029 15.4234 5.80238C15.1105 6.61749 14.9458 7.50517 14.962 8.43176C14.9631 8.49408 14.965 8.5562 14.9677 8.6181C10.5199 10.4442 7.25342 14.5306 6.57042 19.4253C5.8316 19.5791 5.10525 19.8559 4.4202 20.2631C4.26034 20.3581 4.10564 20.4585 3.9562 20.5639Z" fill="#0B8ECB"/>
<path d="M24.9253 6.25753C24.9735 9.01853 22.7744 11.2958 20.0134 11.344C17.2524 11.3922 14.9751 9.19306 14.9269 6.43205C14.8787 3.67105 17.0778 1.39375 19.8388 1.34555C22.5998 1.29736 24.8771 3.49653 24.9253 6.25753Z" stroke="#0B8ECB" stroke-width="2.5"/>
<path d="M30.8475 33.0301C28.4358 31.685 27.5712 28.6395 28.9162 26.2279C30.2613 23.8162 33.3068 22.9516 35.7185 24.2966C38.1302 25.6417 38.9948 28.6872 37.6497 31.0989C36.3046 33.5106 33.2591 34.3752 30.8475 33.0301Z" stroke="#0B8ECB" stroke-width="2.5"/>
<path d="M4.74455 24.7234C7.11828 23.3124 10.1864 24.0929 11.5974 26.4666C13.0084 28.8403 12.2279 31.9085 9.85417 33.3194C7.48044 34.7304 4.41232 33.95 3.00134 31.5762C1.59036 29.2025 2.37082 26.1344 4.74455 24.7234Z" stroke="#0B8ECB" stroke-width="2.5"/>
</svg>
